<?xml version="1.0" standalone="no"?>
<!DOCTYPE svg PUBLIC "-//W3C//DTD SVG 1.0//EN" "http://www.w3.org/TR/2001/REC-SVG-20010904/DTD/svg10.dtd">
<svg xmlns="http://www.w3.org/2000/svg" xmlns:xlink="http://www.w3.org/1999/xlink" id="body_-1895390315_92083" width="1400" height="650">

<g transform="matrix(33.03398 0 0 -33.03398 -70207.668 53642.405)" >
    <g>
            <g>
                <path d="M2139.8407 1619.0674L2139.909 1619.0674L2139.909 1615.1274L2136.679 1615.1274L2136.679 1619.0674L2138.8837 1619.0674M2139.8407 1619.0674L2139.909 1619.0674L2139.909 1615.1274L2136.679 1615.1274L2136.679 1619.0674L2138.8837 1619.0674M2139.8407 1619.0674L2139.909 1619.0674L2139.909 1615.1274L2136.679 1615.1274L2136.679 1619.0674L2138.8837 1619.0674M2139.8407 1619.0674L2139.909 1619.0674L2139.909 1615.1274L2136.679 1615.1274L2136.679 1619.0674L2138.8837 1619.0674M2139.8407 1619.0674L2139.909 1619.0674L2139.909 1615.1274L2136.679 1615.1274L2136.679 1619.0674L2138.8837 1619.0674" stroke="#FF0000" stroke-width="0.017133871" stroke-linecap="round" fill="none" />
            </g>
            <g>
                <path d="M2152.7474 1618.4774L2152.7474 1615.1274L2152.6974 1615.1274M2152.7474 1618.4774L2152.7474 1615.1274L2152.6974 1615.1274" stroke="#FF0000" stroke-width="0.017133871" stroke-linecap="round" fill="none" />
            </g>
                <path d="M2151.7474 1615.1274L2150.0674 1615.1274" stroke="#FF0000" stroke-width="0.017133871" stroke-linecap="round" fill="none" />
            <g>
                <path d="M2153.1273 1615.1038L2153.0473 1615.1038L2153.0473 1619.0638L2156.3773 1619.0638L2156.3773 1615.1038L2154.0773 1615.1038M2153.1273 1615.1038L2153.0473 1615.1038L2153.0473 1619.0638L2156.3773 1619.0638L2156.3773 1615.1038L2154.0773 1615.1038M2153.1273 1615.1038L2153.0473 1615.1038L2153.0473 1619.0638L2156.3773 1619.0638L2156.3773 1615.1038L2154.0773 1615.1038M2153.1273 1615.1038L2153.0473 1615.1038L2153.0473 1619.0638L2156.3773 1619.0638L2156.3773 1615.1038L2154.0773 1615.1038M2153.1273 1615.1038L2153.0473 1615.1038L2153.0473 1619.0638L2156.3773 1619.0638L2156.3773 1615.1038L2154.0773 1615.1038" stroke="#FF0000" stroke-width="0.017133871" stroke-linecap="round" fill="none" />
            </g>
            <g>
                <path d="M2157.8651 1615.1038L2156.6773 1615.1038L2156.6773 1619.0638L2160.0073 1619.0638L2160.0073 1615.1038M2157.8651 1615.1038L2156.6773 1615.1038L2156.6773 1619.0638L2160.0073 1619.0638L2160.0073 1615.1038M2157.8651 1615.1038L2156.6773 1615.1038L2156.6773 1619.0638L2160.0073 1619.0638L2160.0073 1615.1038M2157.8651 1615.1038L2156.6773 1615.1038L2156.6773 1619.0638L2160.0073 1619.0638L2160.0073 1615.1038" stroke="#FF0000" stroke-width="0.017133871" stroke-linecap="round" fill="none" />
            </g>
            <g>
                <path d="M2160.4168 1615.1038L2160.3073 1615.1038L2160.3073 1619.0638L2163.6373 1619.0638L2163.6373 1615.1038L2161.3668 1615.1038M2160.4168 1615.1038L2160.3073 1615.1038L2160.3073 1619.0638L2163.6373 1619.0638L2163.6373 1615.1038L2161.3668 1615.1038M2160.4168 1615.1038L2160.3073 1615.1038L2160.3073 1619.0638L2163.6373 1619.0638L2163.6373 1615.1038L2161.3668 1615.1038M2160.4168 1615.1038L2160.3073 1615.1038L2160.3073 1619.0638L2163.6373 1619.0638L2163.6373 1615.1038L2161.3668 1615.1038M2160.4168 1615.1038L2160.3073 1615.1038L2160.3073 1619.0638L2163.6373 1619.0638L2163.6373 1615.1038L2161.3668 1615.1038" stroke="#FF0000" stroke-width="0.017133871" stroke-linecap="round" fill="none" />
            </g>
            <g>
                <path d="M2163.9373 1614.6474L2163.9373 1619.0638L2167.3473 1619.0638L2167.3473 1613.6474L2163.9373 1613.6474L2163.9373 1613.6974M2163.9373 1614.6474L2163.9373 1619.0638L2167.3473 1619.0638L2167.3473 1613.6474L2163.9373 1613.6474L2163.9373 1613.6974M2163.9373 1614.6474L2163.9373 1619.0638L2167.3473 1619.0638L2167.3473 1613.6474L2163.9373 1613.6474L2163.9373 1613.6974M2163.9373 1614.6474L2163.9373 1619.0638L2167.3473 1619.0638L2167.3473 1613.6474L2163.9373 1613.6474L2163.9373 1613.6974M2163.9373 1614.6474L2163.9373 1619.0638L2167.3473 1619.0638L2167.3473 1613.6474L2163.9373 1613.6474L2163.9373 1613.6974" stroke="#FF0000" stroke-width="0.017133871" stroke-linecap="round" fill="none" />
            </g>
                <path d="M2145.6974 1613.6474L2149.1174 1613.6474" stroke="#FF0000" stroke-width="0.017133871" stroke-linecap="round" fill="none" />
                <path d="M2149.4174 1613.6474L2149.5174 1613.6474" stroke="#FF0000" stroke-width="0.017133871" stroke-linecap="round" fill="none" />
                <path d="M2150.4674 1613.6474L2150.8673 1613.6474" stroke="#FF0000" stroke-width="0.017133871" stroke-linecap="round" fill="none" />
                <path d="M2151.8173 1613.6474L2155.3073 1613.6474" stroke="#FF0000" stroke-width="0.017133871" stroke-linecap="round" fill="none" />
                <path d="M2149.4174 1614.8674L2151.7474 1614.8674" stroke="#FF0000" stroke-width="0.017133871" stroke-linecap="round" fill="none" />
                <path d="M2152.6974 1614.8674L2153.1273 1614.8674" stroke="#FF0000" stroke-width="0.017133871" stroke-linecap="round" fill="none" />
                <path d="M2154.0773 1614.8674L2157.8651 1614.8674" stroke="#FF0000" stroke-width="0.017133871" stroke-linecap="round" fill="none" />
                <path d="M2158.8106 1614.8674L2159.0223 1614.8674" stroke="#FF0000" stroke-width="0.017133871" stroke-linecap="round" fill="none" />
                <path d="M2160.0073 1614.8674L2160.4168 1614.8674" stroke="#FF0000" stroke-width="0.017133871" stroke-linecap="round" fill="none" />
                <path d="M2161.3668 1614.8674L2163.6373 1614.8674" stroke="#FF0000" stroke-width="0.017133871" stroke-linecap="round" fill="none" />
            <g>
                <path d="M2150.4674 1613.3874L2150.5174 1613.3874L2150.5174 1609.6774L2145.6974 1609.6774L2145.6974 1613.3874L2145.6974 1613.3874L2149.5174 1613.3874M2150.4674 1613.3874L2150.5174 1613.3874L2150.5174 1609.6774L2145.6974 1609.6774L2145.6974 1613.3874L2145.6974 1613.3874L2149.5174 1613.3874M2150.4674 1613.3874L2150.5174 1613.3874L2150.5174 1609.6774L2145.6974 1609.6774L2145.6974 1613.3874L2145.6974 1613.3874L2149.5174 1613.3874M2150.4674 1613.3874L2150.5174 1613.3874L2150.5174 1609.6774L2145.6974 1609.6774L2145.6974 1613.3874L2145.6974 1613.3874L2149.5174 1613.3874M2150.4674 1613.3874L2150.5174 1613.3874L2150.5174 1609.6774L2145.6974 1609.6774L2145.6974 1613.3874L2145.6974 1613.3874L2149.5174 1613.3874M2150.4674 1613.3874L2150.5174 1613.3874L2150.5174 1609.6774L2145.6974 1609.6774L2145.6974 1613.3874L2145.6974 1613.3874L2149.5174 1613.3874" stroke="#FF0000" stroke-width="0.017133871" stroke-linecap="round" fill="none" />
            </g>
            <g>
                <path d="M2151.8173 1613.3638L2155.0473 1613.3638L2155.0473 1609.6538L2150.8173 1609.6538L2150.8173 1613.3638L2150.8673 1613.3638M2151.8173 1613.3638L2155.0473 1613.3638L2155.0473 1609.6538L2150.8173 1609.6538L2150.8173 1613.3638L2150.8673 1613.3638M2151.8173 1613.3638L2155.0473 1613.3638L2155.0473 1609.6538L2150.8173 1609.6538L2150.8173 1613.3638L2150.8673 1613.3638M2151.8173 1613.3638L2155.0473 1613.3638L2155.0473 1609.6538L2150.8173 1609.6538L2150.8173 1613.3638L2150.8673 1613.3638M2151.8173 1613.3638L2155.0473 1613.3638L2155.0473 1609.6538L2150.8173 1609.6538L2150.8173 1613.3638L2150.8673 1613.3638" stroke="#FF0000" stroke-width="0.017133871" stroke-linecap="round" fill="none" />
            </g>
            <g>
                <path d="M2162.0773 1613.3638L2162.1273 1613.3638L2162.1273 1609.6538L2157.9073 1609.6538L2157.9073 1613.3638L2161.1273 1613.3638M2162.0773 1613.3638L2162.1273 1613.3638L2162.1273 1609.6538L2157.9073 1609.6538L2157.9073 1613.3638L2161.1273 1613.3638M2162.0773 1613.3638L2162.1273 1613.3638L2162.1273 1609.6538L2157.9073 1609.6538L2157.9073 1613.3638L2161.1273 1613.3638M2162.0773 1613.3638L2162.1273 1613.3638L2162.1273 1609.6538L2157.9073 1609.6538L2157.9073 1613.3638L2161.1273 1613.3638M2162.0773 1613.3638L2162.1273 1613.3638L2162.1273 1609.6538L2157.9073 1609.6538L2157.9073 1613.3638L2161.1273 1613.3638" stroke="#FF0000" stroke-width="0.017133871" stroke-linecap="round" fill="none" />
            </g>
                <path d="M2157.6473 1613.6474L2161.1273 1613.6474" stroke="#FF0000" stroke-width="0.017133871" stroke-linecap="round" fill="none" />
                <path d="M2162.0773 1613.6474L2162.4373 1613.6474" stroke="#FF0000" stroke-width="0.017133871" stroke-linecap="round" fill="none" />
                <path d="M2163.3873 1613.6474L2163.9373 1613.6474" stroke="#FF0000" stroke-width="0.017133871" stroke-linecap="round" fill="none" />
            <g>
                <path d="M2163.3873 1613.3638L2167.2273 1613.3638L2167.2273 1609.6538L2162.3873 1609.6538L2162.3873 1613.3638L2162.4373 1613.3638M2163.3873 1613.3638L2167.2273 1613.3638L2167.2273 1609.6538L2162.3873 1609.6538L2162.3873 1613.3638L2162.4373 1613.3638M2163.3873 1613.3638L2167.2273 1613.3638L2167.2273 1609.6538L2162.3873 1609.6538L2162.3873 1613.3638L2162.4373 1613.3638M2163.3873 1613.3638L2167.2273 1613.3638L2167.2273 1609.6538L2162.3873 1609.6538L2162.3873 1613.3638L2162.4373 1613.3638M2163.3873 1613.3638L2167.2273 1613.3638L2167.2273 1609.6538L2162.3873 1609.6538L2162.3873 1613.3638L2162.4373 1613.3638" stroke="#FF0000" stroke-width="0.017133871" stroke-linecap="round" fill="none" />
            </g>
            <g>
                <path d="M2160.0073 1619.0638L2160.0073 1617.3238L2158.8273 1617.3238L2158.8273 1615.2238L2158.8273 1615.1038M2160.0073 1619.0638L2160.0073 1617.3238L2158.8273 1617.3238L2158.8273 1615.2238L2158.8273 1615.1038M2160.0073 1619.0638L2160.0073 1617.3238L2158.8273 1617.3238L2158.8273 1615.2238L2158.8273 1615.1038M2160.0073 1619.0638L2160.0073 1617.3238L2158.8273 1617.3238L2158.8273 1615.2238L2158.8273 1615.1038" stroke="#FF0000" stroke-width="0.017133871" stroke-linecap="round" fill="none" />
            </g>
                <path d="M2159.0223 1617.0538L2159.0223 1615.1038" stroke="#FF0000" stroke-width="0.017133871" stroke-linecap="round" fill="none" />
                <path d="M2145.6974 1613.6474L2145.6974 1613.3874" stroke="#FF0000" stroke-width="0.017133871" stroke-linecap="round" fill="none" />
                <path d="M2145.0974 1619.0674L2145.0974 1609.5974" stroke="#FF0000" stroke-width="0.017133871" stroke-linecap="round" fill="none" />
            <g>
                <path d="M2129.327 1609.5974L2129.327 1614.8274L2126.097 1614.8274L2126.097 1609.5974L2128.327 1609.5974M2129.327 1609.5974L2129.327 1614.8274L2126.097 1614.8274L2126.097 1609.5974L2128.327 1609.5974M2129.327 1609.5974L2129.327 1614.8274L2126.097 1614.8274L2126.097 1609.5974L2128.327 1609.5974M2129.327 1609.5974L2129.327 1614.8274L2126.097 1614.8274L2126.097 1609.5974L2128.327 1609.5974" stroke="#FF0000" stroke-width="0.017133871" stroke-linecap="round" fill="none" />
            </g>
            <g>
                <path d="M2132.857 1609.5974L2132.857 1614.8274L2129.627 1614.8274L2129.627 1609.5974L2131.857 1609.5974M2132.857 1609.5974L2132.857 1614.8274L2129.627 1614.8274L2129.627 1609.5974L2131.857 1609.5974M2132.857 1609.5974L2132.857 1614.8274L2129.627 1614.8274L2129.627 1609.5974L2131.857 1609.5974M2132.857 1609.5974L2132.857 1614.8274L2129.627 1614.8274L2129.627 1609.5974L2131.857 1609.5974" stroke="#FF0000" stroke-width="0.017133871" stroke-linecap="round" fill="none" />
            </g>
            <g>
                <path d="M2136.387 1609.5974L2136.387 1614.8274L2133.157 1614.8274L2133.157 1609.5974L2135.387 1609.5974M2136.387 1609.5974L2136.387 1614.8274L2133.157 1614.8274L2133.157 1609.5974L2135.387 1609.5974M2136.387 1609.5974L2136.387 1614.8274L2133.157 1614.8274L2133.157 1609.5974L2135.387 1609.5974M2136.387 1609.5974L2136.387 1614.8274L2133.157 1614.8274L2133.157 1609.5974L2135.387 1609.5974" stroke="#FF0000" stroke-width="0.017133871" stroke-linecap="round" fill="none" />
            </g>
            <g>
                <path d="M2139.917 1609.5974L2139.917 1614.8274L2136.687 1614.8274L2136.687 1609.5974L2138.917 1609.5974M2139.917 1609.5974L2139.917 1614.8274L2136.687 1614.8274L2136.687 1609.5974L2138.917 1609.5974M2139.917 1609.5974L2139.917 1614.8274L2136.687 1614.8274L2136.687 1609.5974L2138.917 1609.5974M2139.917 1609.5974L2139.917 1614.8274L2136.687 1614.8274L2136.687 1609.5974L2138.917 1609.5974" stroke="#FF0000" stroke-width="0.017133871" stroke-linecap="round" fill="none" />
            </g>
            <g>
                <path d="M2143.447 1609.5974L2143.447 1614.8274L2140.217 1614.8274L2140.217 1609.5974L2142.447 1609.5974M2143.447 1609.5974L2143.447 1614.8274L2140.217 1614.8274L2140.217 1609.5974L2142.447 1609.5974M2143.447 1609.5974L2143.447 1614.8274L2140.217 1614.8274L2140.217 1609.5974L2142.447 1609.5974M2143.447 1609.5974L2143.447 1614.8274L2140.217 1614.8274L2140.217 1609.5974L2142.447 1609.5974" stroke="#FF0000" stroke-width="0.017133871" stroke-linecap="round" fill="none" />
            </g>
            <g>
                <path d="M2125.797 1609.2983L2125.797 1619.3683L2126.137 1619.3683M2125.797 1609.2983L2125.797 1619.3683L2126.137 1619.3683" stroke="#FF0000" stroke-width="0.025700807" stroke-linecap="round" fill="none" />
            </g>
                <path d="M2127.0862 1619.3683L2129.1804 1619.3683" stroke="#FF0000" stroke-width="0.025700807" stroke-linecap="round" fill="none" />
                <path d="M2129.1804 1619.3683L2130.6895 1619.3683" stroke="#FF0000" stroke-width="0.025700807" stroke-linecap="round" fill="none" />
                <path d="M2130.6895 1619.3683L2131.8295 1619.3683" stroke="#FF0000" stroke-width="0.025700807" stroke-linecap="round" fill="none" />
                <path d="M2132.7795 1619.3683L2133.2361 1619.3683" stroke="#FF0000" stroke-width="0.017133871" stroke-linecap="round" fill="none" />
                <path d="M2134.1742 1619.3683L2135.3595 1619.3683" stroke="#FF0000" stroke-width="0.025700807" stroke-linecap="round" fill="none" />
                <path d="M2136.3095 1619.3683L2138.8837 1619.3683" stroke="#FF0000" stroke-width="0.025700807" stroke-linecap="round" fill="none" />
                <path d="M2139.8407 1619.3683L2144.0652 1619.3683" stroke="#FF0000" stroke-width="0.025700807" stroke-linecap="round" fill="none" />
            <g>
                <path d="M2145.0221 1619.3683L2167.587 1619.3683L2167.587 1609.2983L2157.9073 1609.2983M2145.0221 1619.3683L2167.587 1619.3683L2167.587 1609.2983L2157.9073 1609.2983M2145.0221 1619.3683L2167.587 1619.3683L2167.587 1609.2983L2157.9073 1609.2983" stroke="#FF0000" stroke-width="0.025700807" stroke-linecap="round" fill="none" />
            </g>
                <path d="M2155.0473 1609.2983L2143.447 1609.2983" stroke="#FF0000" stroke-width="0.025700807" stroke-linecap="round" fill="none" />
                <path d="M2142.447 1609.2983L2139.917 1609.2983" stroke="#FF0000" stroke-width="0.025700807" stroke-linecap="round" fill="none" />
                <path d="M2138.917 1609.2983L2136.387 1609.2983" stroke="#FF0000" stroke-width="0.025700807" stroke-linecap="round" fill="none" />
                <path d="M2135.387 1609.2983L2132.857 1609.2983" stroke="#FF0000" stroke-width="0.025700807" stroke-linecap="round" fill="none" />
                <path d="M2131.857 1609.2983L2129.327 1609.2983" stroke="#FF0000" stroke-width="0.025700807" stroke-linecap="round" fill="none" />
            <g>
                <path d="M2149.1174 1613.6974L2149.1174 1613.6474L2145.6974 1613.6474L2145.6974 1619.0674L2149.1174 1619.0674L2149.1174 1614.6474M2149.1174 1613.6974L2149.1174 1613.6474L2145.6974 1613.6474L2145.6974 1619.0674L2149.1174 1619.0674L2149.1174 1614.6474M2149.1174 1613.6974L2149.1174 1613.6474L2145.6974 1613.6474L2145.6974 1619.0674L2149.1174 1619.0674L2149.1174 1614.6474M2149.1174 1613.6974L2149.1174 1613.6474L2145.6974 1613.6474L2145.6974 1619.0674L2149.1174 1619.0674L2149.1174 1614.6474M2149.1174 1613.6974L2149.1174 1613.6474L2145.6974 1613.6474L2145.6974 1619.0674L2149.1174 1619.0674L2149.1174 1614.6474" stroke="#FF0000" stroke-width="0.017133871" stroke-linecap="round" fill="none" />
            </g>
                <path d="M2156.4323 1613.3474L2155.3073 1613.3474" stroke="#FF0000" stroke-width="0.017133871" stroke-linecap="round" fill="none" />
                <path d="M2156.4323 1613.0474L2155.3073 1613.0474" stroke="#FF0000" stroke-width="0.017133871" stroke-linecap="round" fill="none" />
                <path d="M2156.4323 1612.7474L2155.3073 1612.7474" stroke="#FF0000" stroke-width="0.017133871" stroke-linecap="round" fill="none" />
                <path d="M2156.4323 1612.4474L2155.3073 1612.4474" stroke="#FF0000" stroke-width="0.017133871" stroke-linecap="round" fill="none" />
                <path d="M2156.4323 1612.1474L2155.3073 1612.1474" stroke="#FF0000" stroke-width="0.017133871" stroke-linecap="round" fill="none" />
                <path d="M2156.4323 1611.8474L2155.3073 1611.8474" stroke="#FF0000" stroke-width="0.017133871" stroke-linecap="round" fill="none" />
                <path d="M2156.4323 1611.5474L2155.3073 1611.5474" stroke="#FF0000" stroke-width="0.017133871" stroke-linecap="round" fill="none" />
                <path d="M2156.4323 1611.2474L2155.3073 1611.2474" stroke="#FF0000" stroke-width="0.017133871" stroke-linecap="round" fill="none" />
            <g>
                <path d="M2155.3073 1611.0338L2156.4323 1611.0338L2156.4323 1613.6478M2155.3073 1611.0338L2156.4323 1611.0338L2156.4323 1613.6478" stroke="#FF0000" stroke-width="0.017133871" stroke-linecap="round" fill="none" />
            </g>
            <g>
                <path d="M2156.4323 1610.6174L2156.5323 1610.6174L2156.5323 1613.6474M2156.4323 1610.6174L2156.5323 1610.6174L2156.5323 1613.6474" stroke="#FF0000" stroke-width="0.017133871" stroke-linecap="round" fill="none" />
            </g>
                <path d="M2157.6573 1613.3474L2156.5323 1613.3474" stroke="#FF0000" stroke-width="0.017133871" stroke-linecap="round" fill="none" />
                <path d="M2157.6573 1613.0474L2156.5323 1613.0474" stroke="#FF0000" stroke-width="0.017133871" stroke-linecap="round" fill="none" />
                <path d="M2157.6573 1613.6474L2156.5323 1613.6474" stroke="#FF0000" stroke-width="0.017133871" stroke-linecap="round" fill="none" />
            <g>
                <path d="M2126.137 1619.0674L2126.097 1619.0674L2126.097 1615.1674L2129.297 1615.1674L2129.297 1619.0674L2129.1804 1619.0674M2126.137 1619.0674L2126.097 1619.0674L2126.097 1615.1674L2129.297 1615.1674L2129.297 1619.0674L2129.1804 1619.0674M2126.137 1619.0674L2126.097 1619.0674L2126.097 1615.1674L2129.297 1615.1674L2129.297 1619.0674L2129.1804 1619.0674M2126.137 1619.0674L2126.097 1619.0674L2126.097 1615.1674L2129.297 1615.1674L2129.297 1619.0674L2129.1804 1619.0674M2126.137 1619.0674L2126.097 1619.0674L2126.097 1615.1674L2129.297 1615.1674L2129.297 1619.0674L2129.1804 1619.0674" stroke="#FF0000" stroke-width="0.017133871" stroke-linecap="round" fill="none" />
            </g>
                <path d="M2129.1804 1619.0674L2127.0862 1619.0674" stroke="#FF0000" stroke-width="0.017133871" stroke-linecap="round" fill="none" />
            <g>
                <path d="M2130.6895 1619.0674L2129.597 1619.0674L2129.597 1615.1674L2132.797 1615.1674L2132.797 1619.0674L2132.7795 1619.0674M2130.6895 1619.0674L2129.597 1619.0674L2129.597 1615.1674L2132.797 1615.1674L2132.797 1619.0674L2132.7795 1619.0674M2130.6895 1619.0674L2129.597 1619.0674L2129.597 1615.1674L2132.797 1615.1674L2132.797 1619.0674L2132.7795 1619.0674M2130.6895 1619.0674L2129.597 1619.0674L2129.597 1615.1674L2132.797 1615.1674L2132.797 1619.0674L2132.7795 1619.0674M2130.6895 1619.0674L2129.597 1619.0674L2129.597 1615.1674L2132.797 1615.1674L2132.797 1619.0674L2132.7795 1619.0674" stroke="#FF0000" stroke-width="0.017133871" stroke-linecap="round" fill="none" />
            </g>
                <path d="M2131.8295 1619.0674L2130.6895 1619.0674" stroke="#FF0000" stroke-width="0.017133871" stroke-linecap="round" fill="none" />
                <path d="M2135.3595 1619.0674L2134.1742 1619.0674" stroke="#FF0000" stroke-width="0.017133871" stroke-linecap="round" fill="none" />
            <g>
                <path d="M2133.2242 1619.0674L2133.1595 1619.0674L2133.1595 1615.1674L2136.3595 1615.1674L2136.3595 1619.0674L2136.3095 1619.0674M2133.2242 1619.0674L2133.1595 1619.0674L2133.1595 1615.1674L2136.3595 1615.1674L2136.3595 1619.0674L2136.3095 1619.0674M2133.2242 1619.0674L2133.1595 1619.0674L2133.1595 1615.1674L2136.3595 1615.1674L2136.3595 1619.0674L2136.3095 1619.0674M2133.2242 1619.0674L2133.1595 1619.0674L2133.1595 1615.1674L2136.3595 1615.1674L2136.3595 1619.0674L2136.3095 1619.0674M2133.2242 1619.0674L2133.1595 1619.0674L2133.1595 1615.1674L2136.3595 1615.1674L2136.3595 1619.0674L2136.3095 1619.0674" stroke="#FF0000" stroke-width="0.017133871" stroke-linecap="round" fill="none" />
            </g>
				<text transform="matrix(0.80000001 0 0 -1 2127.3361 1613.3763)" x="0" y="0" style="fill:#FF00FF;font-family:Arial;" font-size="0.41909959">
101
				</text>
				<text transform="matrix(0.80000001 0 0 -1 2130.8854 1613.4228)" x="0" y="0" style="fill:#FF00FF;font-family:Arial;" font-size="0.41909959">
102
				</text>
				<text transform="matrix(0.80000001 0 0 -1 2138.031 1613.4201)" x="0" y="0" style="fill:#FF00FF;font-family:Arial;" font-size="0.41909959">
104
				</text>
				<text transform="matrix(0.80000001 0 0 -1 2141.475 1613.4663)" x="0" y="0" style="fill:#FF00FF;font-family:Arial;" font-size="0.41909959">
105
				</text>
                <path d="M2128.327 1609.5974L2128.327 1609.2983" stroke="#FF0000" stroke-width="0.017133871" stroke-linecap="round" fill="none" />
                <path d="M2129.327 1609.2983L2129.327 1609.5974" stroke="#FF0000" stroke-width="0.017133871" stroke-linecap="round" fill="none" />
                <path d="M2128.327 1609.2983L2125.797 1609.2983" stroke="#FF0000" stroke-width="0.025700807" stroke-linecap="round" fill="none" />
                <path d="M2131.857 1609.5974L2131.857 1609.2983" stroke="#FF0000" stroke-width="0.017133871" stroke-linecap="round" fill="none" />
                <path d="M2132.857 1609.2983L2132.857 1609.5974" stroke="#FF0000" stroke-width="0.017133871" stroke-linecap="round" fill="none" />
                <path d="M2135.387 1609.5974L2135.387 1609.2983" stroke="#FF0000" stroke-width="0.017133871" stroke-linecap="round" fill="none" />
                <path d="M2136.387 1609.2983L2136.387 1609.5974" stroke="#FF0000" stroke-width="0.017133871" stroke-linecap="round" fill="none" />
                <path d="M2138.917 1609.5974L2138.917 1609.2983" stroke="#FF0000" stroke-width="0.017133871" stroke-linecap="round" fill="none" />
                <path d="M2139.917 1609.2983L2139.917 1609.5974" stroke="#FF0000" stroke-width="0.017133871" stroke-linecap="round" fill="none" />
                <path d="M2142.447 1609.5974L2142.447 1609.2983" stroke="#FF0000" stroke-width="0.017133871" stroke-linecap="round" fill="none" />
                <path d="M2143.447 1609.2983L2143.447 1609.5974" stroke="#FF0000" stroke-width="0.017133871" stroke-linecap="round" fill="none" />
            <g>
                <path d="M2129.327 1609.5974L2129.277 1609.5974L2129.277 1608.6474M2129.327 1609.5974L2129.277 1609.5974L2129.277 1608.6474M2129.277 1608.6474L2129.2107 1608.6497L2129.1448 1608.6566L2129.0795 1608.6681L2129.0151 1608.6842L2128.9521 1608.7047L2128.8906 1608.7295L2128.831 1608.7586L2128.7736 1608.7917L2128.7186 1608.8288L2128.6663 1608.8696L2128.6171 1608.914L2128.571 1608.9617L2128.5284 1609.0125L2128.4894 1609.0661L2128.4543 1609.1224L2128.4231 1609.1809L2128.3962 1609.2415L2128.3735 1609.3038L2128.3552 1609.3675L2128.3414 1609.4324L2128.327 1609.5974M2129.327 1609.5974L2129.277 1609.5974L2129.277 1608.6474" stroke="#00FF00" stroke-width="0.017133871" stroke-linecap="round" fill="none" />
            </g>
            <g>
                <path d="M2132.857 1609.5974L2132.807 1609.5974L2132.807 1608.6474M2132.857 1609.5974L2132.807 1609.5974L2132.807 1608.6474M2132.807 1608.6474L2132.7407 1608.6497L2132.6748 1608.6566L2132.6095 1608.6681L2132.5451 1608.6842L2132.4821 1608.7047L2132.4206 1608.7295L2132.361 1608.7586L2132.3036 1608.7917L2132.2486 1608.8288L2132.1963 1608.8696L2132.1471 1608.914L2132.101 1608.9617L2132.0584 1609.0125L2132.0194 1609.0661L2131.9843 1609.1224L2131.9531 1609.1809L2131.9262 1609.2415L2131.9035 1609.3038L2131.8852 1609.3675L2131.8714 1609.4324L2131.857 1609.5974M2132.857 1609.5974L2132.807 1609.5974L2132.807 1608.6474" stroke="#00FF00" stroke-width="0.017133871" stroke-linecap="round" fill="none" />
            </g>
            <g>
                <path d="M2136.387 1609.5974L2136.337 1609.5974L2136.337 1608.6474M2136.387 1609.5974L2136.337 1609.5974L2136.337 1608.6474M2136.337 1608.6474L2136.2707 1608.6497L2136.2048 1608.6566L2136.1395 1608.6681L2136.0751 1608.6842L2136.0121 1608.7047L2135.9506 1608.7295L2135.891 1608.7586L2135.8336 1608.7917L2135.7786 1608.8288L2135.7263 1608.8696L2135.6771 1608.914L2135.631 1608.9617L2135.5884 1609.0125L2135.5494 1609.0661L2135.5143 1609.1224L2135.4831 1609.1809L2135.4562 1609.2415L2135.4335 1609.3038L2135.4152 1609.3675L2135.4014 1609.4324L2135.387 1609.5974M2136.387 1609.5974L2136.337 1609.5974L2136.337 1608.6474" stroke="#00FF00" stroke-width="0.017133871" stroke-linecap="round" fill="none" />
            </g>
            <g>
                <path d="M2139.917 1609.5974L2139.867 1609.5974L2139.867 1608.6474M2139.917 1609.5974L2139.867 1609.5974L2139.867 1608.6474M2139.867 1608.6474L2139.8007 1608.6497L2139.7348 1608.6566L2139.6695 1608.6681L2139.6051 1608.6842L2139.5421 1608.7047L2139.4806 1608.7295L2139.421 1608.7586L2139.3636 1608.7917L2139.3086 1608.8288L2139.2563 1608.8696L2139.2071 1608.914L2139.161 1608.9617L2139.1184 1609.0125L2139.0794 1609.0661L2139.0443 1609.1224L2139.0131 1609.1809L2138.9862 1609.2415L2138.9635 1609.3038L2138.9452 1609.3675L2138.9314 1609.4324L2138.917 1609.5974M2139.917 1609.5974L2139.867 1609.5974L2139.867 1608.6474" stroke="#00FF00" stroke-width="0.017133871" stroke-linecap="round" fill="none" />
            </g>
            <g>
                <path d="M2143.447 1609.5974L2143.397 1609.5974L2143.397 1608.6474M2143.447 1609.5974L2143.397 1609.5974L2143.397 1608.6474M2143.397 1608.6474L2143.3307 1608.6497L2143.2648 1608.6566L2143.1995 1608.6681L2143.1351 1608.6842L2143.0721 1608.7047L2143.0106 1608.7295L2142.951 1608.7586L2142.8936 1608.7917L2142.8386 1608.8288L2142.7863 1608.8696L2142.7371 1608.914L2142.691 1608.9617L2142.6484 1609.0125L2142.6094 1609.0661L2142.5743 1609.1224L2142.5431 1609.1809L2142.5162 1609.2415L2142.4935 1609.3038L2142.4752 1609.3675L2142.4614 1609.4324L2142.447 1609.5974M2143.447 1609.5974L2143.397 1609.5974L2143.397 1608.6474" stroke="#00FF00" stroke-width="0.017133871" stroke-linecap="round" fill="none" />
            </g>
        <g>
				<text transform="matrix(0.80000001 0 0 -1 2141.4248 1613.0946)" x="0" y="0" style="fill:#FF00FF;font-family:Arial;" font-size="0.27939972">
户
				</text>
				<text transform="matrix(0.80000001 0 0 -1 2141.5603 1613.0946)" x="0" y="0" style="fill:#FF00FF;font-family:Arial;" font-size="0.27939972">
籍
				</text>
				<text transform="matrix(0.80000001 0 0 -1 2141.7822 1613.0946)" x="0" y="0" style="fill:#FF00FF;font-family:Arial;" font-size="0.27939972">
室
				</text>
        </g>
				<text transform="matrix(0.80000001 0 0 -1 2134.478 1613.4357)" x="0" y="0" style="fill:#FF00FF;font-family:Arial;" font-size="0.41909959">
103
				</text>
        <g>
				<text transform="matrix(0.80000001 0 0 -1 2134.2263 1613.0677)" x="0" y="0" style="fill:#FF00FF;font-family:Arial;" font-size="0.27939972">
房
				</text>
				<text transform="matrix(0.80000001 0 0 -1 2134.4482 1613.0677)" x="0" y="0" style="fill:#FF00FF;font-family:Arial;" font-size="0.27939972">
产
				</text>
				<text transform="matrix(0.80000001 0 0 -1 2134.5837 1613.0677)" x="0" y="0" style="fill:#FF00FF;font-family:Arial;" font-size="0.27939972">
管
				</text>
				<text transform="matrix(0.80000001 0 0 -1 2134.8056 1613.0677)" x="0" y="0" style="fill:#FF00FF;font-family:Arial;" font-size="0.27939972">
理
				</text>
				<text transform="matrix(0.80000001 0 0 -1 2135.0275 1613.0677)" x="0" y="0" style="fill:#FF00FF;font-family:Arial;" font-size="0.27939972">
科
				</text>
        </g>
				<text transform="matrix(0 1 1 0 2126.5043 1611.9079)" x="0" y="0" style="fill:#FF0000;font-family:SimSun;" font-size="0.28603351">
5.23
				</text>
				<text transform="matrix(0 1 1 0 2129.9479 1611.9079)" x="0" y="0" style="fill:#FF0000;font-family:SimSun;" font-size="0.28603351">
5.23
				</text>
				<text transform="matrix(0 1 1 0 2133.5495 1611.9079)" x="0" y="0" style="fill:#FF0000;font-family:SimSun;" font-size="0.28603351">
5.23
				</text>
				<text transform="matrix(0 1 1 0 2137.0541 1611.9079)" x="0" y="0" style="fill:#FF0000;font-family:SimSun;" font-size="0.28603351">
5.23
				</text>
				<text transform="matrix(0 1 1 0 2140.583 1611.9079)" x="0" y="0" style="fill:#FF0000;font-family:SimSun;" font-size="0.28603351">
5.23
				</text>
				<text transform="matrix(0 1 1 0 2125.6711 1614.2088)" x="0" y="0" style="fill:#FF0000;font-family:SimSun;" font-size="0.28603351">
10.07
				</text>
				<text transform="matrix(1 0 0 -1 2146.3488 1619.4682)" x="0" y="0" style="fill:#FF0000;font-family:SimSun;" font-size="0.28603351">
41.79
				</text>
				<text transform="matrix(1 0 0 -1 2146.3488 1608.8446)" x="0" y="0" style="fill:#FF0000;font-family:SimSun;" font-size="0.28603351">
41.79
				</text>
				<text transform="matrix(1 0 0 -1 2127.3425 1614.5069)" x="0" y="0" style="fill:#FF0000;font-family:SimSun;" font-size="0.28603351">
3.23
				</text>
				<text transform="matrix(1 0 0 -1 2130.882 1614.5069)" x="0" y="0" style="fill:#FF0000;font-family:SimSun;" font-size="0.28603351">
3.23
				</text>
				<text transform="matrix(1 0 0 -1 2134.4428 1614.5069)" x="0" y="0" style="fill:#FF0000;font-family:SimSun;" font-size="0.28603351">
3.23
				</text>
				<text transform="matrix(1 0 0 -1 2138.0219 1614.5069)" x="0" y="0" style="fill:#FF0000;font-family:SimSun;" font-size="0.28603351">
3.23
				</text>
				<text transform="matrix(1 0 0 -1 2141.4826 1614.5069)" x="0" y="0" style="fill:#FF0000;font-family:SimSun;" font-size="0.28603351">
3.23
				</text>
				<text transform="matrix(1 0 0 -1 2127.0014 1612.6361)" x="0" y="0" style="fill:#FF00FF;font-family:SimSun;" font-size="0.28603351">
S=16.89㎡
				</text>
				<text transform="matrix(1 0 0 -1 2130.6337 1612.6361)" x="0" y="0" style="fill:#FF00FF;font-family:SimSun;" font-size="0.28603351">
S=16.89㎡
				</text>
				<text transform="matrix(1 0 0 -1 2137.6767 1612.4064)" x="0" y="0" style="fill:#FF00FF;font-family:SimSun;" font-size="0.28603351">
S=16.89㎡
				</text>
				<text transform="matrix(1 0 0 -1 2134.2167 1612.5389)" x="0" y="0" style="fill:#FF00FF;font-family:SimSun;" font-size="0.28603351">
S=16.89㎡
				</text>
				<text transform="matrix(1 0 0 -1 2141.1877 1612.4869)" x="0" y="0" style="fill:#FF00FF;font-family:SimSun;" font-size="0.28603351">
S=16.89㎡
				</text>
            <g>
                <path d="M2126.137 1619.3683L2126.137 1619.3683L2126.137 1619.0674M2126.137 1619.3683L2126.137 1619.3683L2126.137 1619.0674" stroke="#FF0000" stroke-width="0.017133871" stroke-linecap="round" fill="none" />
            </g>
            <path d="M2127.0862 1619.2178L2127.0862 1620.1678" stroke="#00FF00" stroke-width="0.017133871" stroke-linecap="round" fill="none" />
            <path d="M2127.0862 1620.1678L2127.0199 1620.1655L2126.9539 1620.1586L2126.8886 1620.1471L2126.8243 1620.131L2126.7612 1620.1106L2126.6998 1620.0857L2126.6402 1620.0566L2126.5827 1620.0235L2126.5278 1619.9864L2126.4755 1619.9456L2126.4262 1619.9012L2126.3802 1619.8535L2126.3375 1619.8027L2126.2986 1619.7491L2126.2634 1619.6928L2126.2323 1619.6343L2126.2053 1619.5737L2126.1827 1619.5114L2126.1644 1619.4477L2126.1506 1619.3828L2126.1362 1619.2178" stroke="#00FF00" stroke-width="0.017133871" stroke-linecap="round" fill="none" />
                <path d="M2127.0862 1619.3683L2127.0862 1619.0674" stroke="#FF0000" stroke-width="0.017133871" stroke-linecap="round" fill="none" />
            <path d="M2132.7795 1619.2178L2132.7795 1620.1678" stroke="#00FF00" stroke-width="0.017133871" stroke-linecap="round" fill="none" />
            <path d="M2132.7795 1620.1678L2132.7133 1620.1655L2132.6473 1620.1586L2132.582 1620.1471L2132.5177 1620.131L2132.4546 1620.1106L2132.3931 1620.0857L2132.3335 1620.0566L2132.2761 1620.0235L2132.2211 1619.9864L2132.1689 1619.9456L2132.1196 1619.9012L2132.0735 1619.8535L2132.0309 1619.8027L2131.9919 1619.7491L2131.9568 1619.6928L2131.9257 1619.6343L2131.8987 1619.5737L2131.876 1619.5114L2131.8577 1619.4477L2131.844 1619.3828L2131.8295 1619.2178" stroke="#00FF00" stroke-width="0.017133871" stroke-linecap="round" fill="none" />
                <path d="M2131.8295 1619.0674L2131.8295 1619.3683" stroke="#FF0000" stroke-width="0.017133871" stroke-linecap="round" fill="none" />
                <path d="M2132.7795 1619.0674L2132.7795 1619.3683" stroke="#FF0000" stroke-width="0.017133871" stroke-linecap="round" fill="none" />
                <path d="M2145.7174 1619.0674L2145.0221 1619.0674" stroke="#FF0000" stroke-width="0.017133871" stroke-linecap="round" fill="none" />
                <path d="M2144.0841 1619.0674L2139.909 1619.0674" stroke="#FF0000" stroke-width="0.017133871" stroke-linecap="round" fill="none" />
                <path d="M2143.5974 1609.5974L2145.0974 1609.5974" stroke="#FF0000" stroke-width="0.017133871" stroke-linecap="round" fill="none" />
                <path d="M2159.0223 1615.1038L2159.0223 1614.8674" stroke="#FF0000" stroke-width="0.017133871" stroke-linecap="round" fill="none" />
                <path d="M2160.0073 1615.1038L2160.0073 1614.8674" stroke="#FF0000" stroke-width="0.017133871" stroke-linecap="round" fill="none" />
            <g>
                <path d="M2139.8407 1619.2178L2139.8407 1619.2178L2139.8407 1618.2678M2139.8407 1619.2178L2139.8407 1619.2178L2139.8407 1618.2678M2139.8407 1618.2678L2139.7744 1618.2702L2139.7085 1618.2771L2139.6432 1618.2886L2139.5788 1618.3046L2139.5157 1618.3251L2139.4543 1618.35L2139.3947 1618.379L2139.3372 1618.4122L2139.2823 1618.4493L2139.23 1618.4901L2139.1807 1618.5345L2139.1347 1618.5822L2139.0921 1618.633L2139.0531 1618.6866L2139.0179 1618.7428L2138.9868 1618.8014L2138.9598 1618.862L2138.9372 1618.9243L2138.9189 1618.988L2138.9051 1619.0529L2138.8907 1619.2178M2139.8407 1619.2178L2139.8407 1619.2178L2139.8407 1618.2678" stroke="#00FF00" stroke-width="0.017133871" stroke-linecap="round" fill="none" />
            </g>
                <path d="M2139.8407 1619.0674L2139.8407 1619.3683" stroke="#FF0000" stroke-width="0.017133871" stroke-linecap="round" fill="none" />
                <path d="M2138.8837 1619.3683L2138.8837 1619.0674" stroke="#FF0000" stroke-width="0.017133871" stroke-linecap="round" fill="none" />
                <path d="M2145.0974 1619.0674L2145.0221 1619.0674" stroke="#FF0000" stroke-width="0.017133871" stroke-linecap="round" fill="none" />
            <g>
                <path d="M2144.0841 1619.0674L2140.0874 1619.0674L2140.0874 1615.1494L2143.5974 1615.1494L2143.5974 1615.1494L2143.5974 1615.1494M2144.0841 1619.0674L2140.0874 1619.0674L2140.0874 1615.1494L2143.5974 1615.1494L2143.5974 1615.1494L2143.5974 1615.1494M2144.0841 1619.0674L2140.0874 1619.0674L2140.0874 1615.1494L2143.5974 1615.1494L2143.5974 1615.1494L2143.5974 1615.1494M2144.0841 1619.0674L2140.0874 1619.0674L2140.0874 1615.1494L2143.5974 1615.1494L2143.5974 1615.1494L2143.5974 1615.1494M2144.0841 1619.0674L2140.0874 1619.0674L2140.0874 1615.1494L2143.5974 1615.1494L2143.5974 1615.1494L2143.5974 1615.1494" stroke="#FF0000" stroke-width="0.017133871" stroke-linecap="round" fill="none" />
            </g>
            <g>
                <path d="M2143.5974 1614.8494L2143.5974 1613.5673L2143.5974 1609.5974M2143.5974 1614.8494L2143.5974 1613.5673L2143.5974 1609.5974" stroke="#FF0000" stroke-width="0.017133871" stroke-linecap="round" fill="none" />
            </g>
            <g>
                <path d="M2145.0221 1619.2178L2145.0221 1619.2178L2145.0221 1618.2678M2145.0221 1619.2178L2145.0221 1619.2178L2145.0221 1618.2678M2145.0221 1618.2678L2144.9559 1618.2702L2144.8899 1618.2771L2144.8246 1618.2886L2144.7603 1618.3046L2144.6972 1618.3251L2144.6357 1618.35L2144.5761 1618.379L2144.5187 1618.4122L2144.4637 1618.4493L2144.4115 1618.4901L2144.3622 1618.5345L2144.3161 1618.5822L2144.2735 1618.633L2144.2345 1618.6866L2144.1994 1618.7428L2144.1683 1618.8014L2144.1413 1618.862L2144.1186 1618.9243L2144.1004 1618.988L2144.0866 1619.0529L2144.0721 1619.2178M2145.0221 1619.2178L2145.0221 1619.2178L2145.0221 1618.2678" stroke="#00FF00" stroke-width="0.017133871" stroke-linecap="round" fill="none" />
            </g>
                <path d="M2145.0221 1619.0674L2145.0221 1619.3683" stroke="#FF0000" stroke-width="0.017133871" stroke-linecap="round" fill="none" />
                <path d="M2144.0652 1619.3683L2144.0652 1619.0674" stroke="#FF0000" stroke-width="0.017133871" stroke-linecap="round" fill="none" />
            <path d="M2134.1742 1619.2178L2134.1742 1620.1678" stroke="#00FF00" stroke-width="0.017133871" stroke-linecap="round" fill="none" />
            <path d="M2134.1742 1620.1678L2134.1079 1620.1655L2134.0419 1620.1586L2133.9766 1620.1471L2133.9123 1620.131L2133.8492 1620.1106L2133.7878 1620.0857L2133.7282 1620.0566L2133.6707 1620.0235L2133.6158 1619.9864L2133.5635 1619.9456L2133.5142 1619.9012L2133.4682 1619.8535L2133.4255 1619.8027L2133.3866 1619.7491L2133.3514 1619.6928L2133.3203 1619.6343L2133.2933 1619.5737L2133.2707 1619.5114L2133.2524 1619.4477L2133.2386 1619.3828L2133.2242 1619.2178" stroke="#00FF00" stroke-width="0.017133871" stroke-linecap="round" fill="none" />
            <g>
                <path d="M2133.2242 1619.2178L2133.2242 1619.0674L2133.2242 1619.3683M2133.2242 1619.2178L2133.2242 1619.0674L2133.2242 1619.3683" stroke="#FF0000" stroke-width="0.017133871" stroke-linecap="round" fill="none" />
            </g>
                <path d="M2134.1742 1619.3683L2134.1742 1619.0674" stroke="#FF0000" stroke-width="0.017133871" stroke-linecap="round" fill="none" />
                <path d="M2135.3595 1619.0674L2136.3095 1619.0674" stroke="#FF0000" stroke-width="0.017133871" stroke-linecap="round" fill="none" />
                <path d="M2135.3595 1619.3683L2136.3095 1619.3683" stroke="#FF0000" stroke-width="0.025700807" stroke-linecap="round" fill="none" />
        <g>
				<text transform="matrix(0.80000001 0 0 -1 2126.8334 1617.775)" x="0" y="0" style="fill:#FF00FF;font-family:Arial;" font-size="0.27939972">
襄
				</text>
				<text transform="matrix(0.80000001 0 0 -1 2127.0556 1617.775)" x="0" y="0" style="fill:#FF00FF;font-family:Arial;" font-size="0.27939972">
阳
				</text>
				<text transform="matrix(0.80000001 0 0 -1 2127.2727 1617.775)" x="0" y="0" style="fill:#FF00FF;font-family:Arial;" font-size="0.27939972">
老
				</text>
				<text transform="matrix(0.80000001 0 0 -1 2127.4946 1617.775)" x="0" y="0" style="fill:#FF00FF;font-family:Arial;" font-size="0.27939972">
龄
				</text>
				<text transform="matrix(0.80000001 0 0 -1 2127.6298 1617.775)" x="0" y="0" style="fill:#FF00FF;font-family:Arial;" font-size="0.27939972">
编
				</text>
				<text transform="matrix(0.80000001 0 0 -1 2127.7653 1617.775)" x="0" y="0" style="fill:#FF00FF;font-family:Arial;" font-size="0.27939972">
辑
				</text>
				<text transform="matrix(0.80000001 0 0 -1 2127.9008 1617.775)" x="0" y="0" style="fill:#FF00FF;font-family:Arial;" font-size="0.27939972">
部
				</text>
        </g>
        <g>
				<text transform="matrix(0.80000001 0 0 -1 2138.1369 1617.7744)" x="0" y="0" style="fill:#FF00FF;font-family:Arial;" font-size="0.27939972">
机
				</text>
				<text transform="matrix(0.80000001 0 0 -1 2138.3588 1617.7744)" x="0" y="0" style="fill:#FF00FF;font-family:Arial;" font-size="0.27939972">
要
				</text>
				<text transform="matrix(0.80000001 0 0 -1 2138.5808 1617.7744)" x="0" y="0" style="fill:#FF00FF;font-family:Arial;" font-size="0.27939972">
站
				</text>
        </g>
        <g>
				<text transform="matrix(0.80000001 0 0 -1 2141.6472 1617.7766)" x="0" y="0" style="fill:#FF00FF;font-family:Arial;" font-size="0.27939972">
长
				</text>
				<text transform="matrix(0.80000001 0 0 -1 2141.7827 1617.7766)" x="0" y="0" style="fill:#FF00FF;font-family:Arial;" font-size="0.27939972">
寿
				</text>
				<text transform="matrix(0.80000001 0 0 -1 2142.0021 1617.7766)" x="0" y="0" style="fill:#FF00FF;font-family:Arial;" font-size="0.27939972">
研
				</text>
				<text transform="matrix(0.80000001 0 0 -1 2142.2241 1617.7766)" x="0" y="0" style="fill:#FF00FF;font-family:Arial;" font-size="0.27939972">
究
				</text>
				<text transform="matrix(0.80000001 0 0 -1 2142.446 1617.7766)" x="0" y="0" style="fill:#FF00FF;font-family:Arial;" font-size="0.27939972">
会
				</text>
        </g>
        <g>
				<text transform="matrix(0.80000001 0 0 -1 2130.5988 1617.775)" x="0" y="0" style="fill:#FF00FF;font-family:Arial;" font-size="0.27939972">
襄
				</text>
				<text transform="matrix(0.80000001 0 0 -1 2130.8208 1617.775)" x="0" y="0" style="fill:#FF00FF;font-family:Arial;" font-size="0.27939972">
阳
				</text>
				<text transform="matrix(0.80000001 0 0 -1 2131.0378 1617.775)" x="0" y="0" style="fill:#FF00FF;font-family:Arial;" font-size="0.27939972">
老
				</text>
				<text transform="matrix(0.80000001 0 0 -1 2131.2597 1617.775)" x="0" y="0" style="fill:#FF00FF;font-family:Arial;" font-size="0.27939972">
龄
				</text>
				<text transform="matrix(0.80000001 0 0 -1 2131.3952 1617.775)" x="0" y="0" style="fill:#FF00FF;font-family:Arial;" font-size="0.27939972">
编
				</text>
				<text transform="matrix(0.80000001 0 0 -1 2131.5307 1617.775)" x="0" y="0" style="fill:#FF00FF;font-family:Arial;" font-size="0.27939972">
辑
				</text>
				<text transform="matrix(0.80000001 0 0 -1 2131.666 1617.775)" x="0" y="0" style="fill:#FF00FF;font-family:Arial;" font-size="0.27939972">
部
				</text>
        </g>
        <g>
				<text transform="matrix(0.80000001 0 0 -1 2134.5256 1617.7766)" x="0" y="0" style="fill:#FF00FF;font-family:Arial;" font-size="0.27939972">
老
				</text>
				<text transform="matrix(0.80000001 0 0 -1 2134.7475 1617.7766)" x="0" y="0" style="fill:#FF00FF;font-family:Arial;" font-size="0.27939972">
年
				</text>
				<text transform="matrix(0.80000001 0 0 -1 2134.9697 1617.7766)" x="0" y="0" style="fill:#FF00FF;font-family:Arial;" font-size="0.27939972">
协
				</text>
				<text transform="matrix(0.80000001 0 0 -1 2135.1049 1617.7766)" x="0" y="0" style="fill:#FF00FF;font-family:Arial;" font-size="0.27939972">
会
				</text>
        </g>
				<text transform="matrix(1 0 0 -1 2130.882 1615.2943)" x="0" y="0" style="fill:#FF0000;font-family:SimSun;" font-size="0.28603351">
3.23
				</text>
				<text transform="matrix(1 0 0 -1 2134.4428 1615.2943)" x="0" y="0" style="fill:#FF0000;font-family:SimSun;" font-size="0.28603351">
3.23
				</text>
				<text transform="matrix(1 0 0 -1 2138.0219 1615.2943)" x="0" y="0" style="fill:#FF0000;font-family:SimSun;" font-size="0.28603351">
3.23
				</text>
				<text transform="matrix(1 0 0 -1 2127.3425 1615.263)" x="0" y="0" style="fill:#FF0000;font-family:SimSun;" font-size="0.28603351">
3.23
				</text>
				<text transform="matrix(0 1 1 0 2126.4606 1616.7496)" x="0" y="0" style="fill:#FF0000;font-family:SimSun;" font-size="0.28603351">
3.94
				</text>
				<text transform="matrix(0 1 1 0 2129.9204 1616.7496)" x="0" y="0" style="fill:#FF0000;font-family:SimSun;" font-size="0.28603351">
3.94
				</text>
				<text transform="matrix(0 1 1 0 2133.4665 1616.7496)" x="0" y="0" style="fill:#FF0000;font-family:SimSun;" font-size="0.28603351">
3.94
				</text>
				<text transform="matrix(0 1 1 0 2140.3955 1616.7496)" x="0" y="0" style="fill:#FF0000;font-family:SimSun;" font-size="0.28603351">
3.94
				</text>
				<text transform="matrix(0 1 1 0 2137.0051 1616.7496)" x="0" y="0" style="fill:#FF0000;font-family:SimSun;" font-size="0.28603351">
3.94
				</text>
				<text transform="matrix(0 1 1 0 2143.8852 1611.9079)" x="0" y="0" style="fill:#FF0000;font-family:SimSun;" font-size="0.28603351">
5.23
				</text>
				<text transform="matrix(1 0 0 -1 2144.0197 1609.6903)" x="0" y="0" style="fill:#FF0000;font-family:SimSun;" font-size="0.28603351">
1.50
				</text>
            <g>
                <path d="M2140.0874 1615.1494L2144.2074 1615.1494L2144.2074 1614.8494L2144.2074 1614.8494M2140.0874 1615.1494L2144.2074 1615.1494L2144.2074 1614.8494L2144.2074 1614.8494M2140.0874 1615.1494L2144.2074 1615.1494L2144.2074 1614.8494L2144.2074 1614.8494" stroke="#FF0000" stroke-width="0.017133871" stroke-linecap="round" fill="none" />
            </g>
                <path d="M2143.5974 1614.8494L2144.2074 1614.8494" stroke="#FF0000" stroke-width="0.017133871" stroke-linecap="round" fill="none" />
            <g>
                <path d="M2145.0974 1615.0032L2145.0974 1615.0032L2145.0974 1614.0513M2145.0974 1615.0032L2145.0974 1615.0032L2145.0974 1614.0513M2145.0974 1614.0513L2145.0314 1614.0578L2144.966 1614.0688L2144.9015 1614.0845L2144.8384 1614.1045L2144.7767 1614.129L2144.7169 1614.1576L2144.6593 1614.1904L2144.6041 1614.2271L2144.5515 1614.2676L2144.502 1614.3116L2144.4556 1614.359L2144.4126 1614.4095L2144.3733 1614.4629L2144.3378 1614.5189L2144.3063 1614.5773L2144.2789 1614.6377L2144.2558 1614.6998L2144.2371 1614.7634L2144.2229 1614.8282L2144.2132 1614.8938L2144.2074 1614.9994M2145.0974 1615.0032L2145.0974 1615.0032L2145.0974 1614.0513" stroke="#00FF00" stroke-width="0.017133871" stroke-linecap="round" fill="none" />
            </g>
				<text transform="matrix(1 0 0 -1 2141.8403 1615.2954)" x="0" y="0" style="fill:#FF0000;font-family:SimSun;" font-size="0.28603351">
4.12
				</text>
				<text transform="matrix(1 0 0 -1 2144.3498 1615.2943)" x="0" y="0" style="fill:#FF0000;font-family:SimSun;" font-size="0.28603351">
0.89
				</text>
                <path d="M2149.4174 1614.8674L2149.4174 1614.6474" stroke="#FF0000" stroke-width="0.017133871" stroke-linecap="round" fill="none" />
                <path d="M2149.4174 1613.6974L2149.4174 1613.6474" stroke="#FF0000" stroke-width="0.017133871" stroke-linecap="round" fill="none" />
            <path d="M2149.1174 1613.6974L2148.1674 1613.6974" stroke="#00FF00" stroke-width="0.017133871" stroke-linecap="round" fill="none" />
            <path d="M2149.1174 1614.6474L2149.0511 1614.645L2148.9851 1614.6381L2148.9198 1614.6266L2148.8555 1614.6106L2148.7924 1614.5901L2148.731 1614.5652L2148.6714 1614.5362L2148.6139 1614.503L2148.559 1614.4659L2148.5067 1614.4251L2148.4574 1614.3807L2148.4114 1614.333L2148.3687 1614.2822L2148.3298 1614.2286L2148.2946 1614.1724L2148.2635 1614.1138L2148.2365 1614.0532L2148.2139 1613.9909L2148.1956 1613.9272L2148.1818 1613.8623L2148.1674 1613.6974" stroke="#00FF00" stroke-width="0.017133871" stroke-linecap="round" fill="none" />
                <path d="M2149.1174 1614.6474L2149.4174 1614.6474" stroke="#FF0000" stroke-width="0.017133871" stroke-linecap="round" fill="none" />
                <path d="M2149.1174 1613.6974L2149.4174 1613.6974" stroke="#FF0000" stroke-width="0.017133871" stroke-linecap="round" fill="none" />
        <g>
				<text transform="matrix(0.80000001 0 0 -1 2146.8383 1616.4438)" x="0" y="0" style="fill:#FF00FF;font-family:Arial;" font-size="0.27939972">
房
				</text>
				<text transform="matrix(0.80000001 0 0 -1 2147.0603 1616.4438)" x="0" y="0" style="fill:#FF00FF;font-family:Arial;" font-size="0.27939972">
产
				</text>
				<text transform="matrix(0.80000001 0 0 -1 2147.1955 1616.4438)" x="0" y="0" style="fill:#FF00FF;font-family:Arial;" font-size="0.27939972">
管
				</text>
				<text transform="matrix(0.80000001 0 0 -1 2147.4177 1616.4438)" x="0" y="0" style="fill:#FF00FF;font-family:Arial;" font-size="0.27939972">
理
				</text>
				<text transform="matrix(0.80000001 0 0 -1 2147.6396 1616.4438)" x="0" y="0" style="fill:#FF00FF;font-family:Arial;" font-size="0.27939972">
科
				</text>
        </g>
				<text transform="matrix(0 1 1 0 2145.9729 1615.7034)" x="0" y="0" style="fill:#FF0000;font-family:SimSun;" font-size="0.28603351">
5.425
				</text>
				<text transform="matrix(1 0 0 -1 2147.0893 1618.7867)" x="0" y="0" style="fill:#FF0000;font-family:SimSun;" font-size="0.28603351">
3.431
				</text>
            <g>
                <path d="M2152.7474 1615.1274L2152.7474 1618.4774L2150.0674 1618.4774L2150.0674 1615.1274M2152.7474 1615.1274L2152.7474 1618.4774L2150.0674 1618.4774L2150.0674 1615.1274M2152.7474 1615.1274L2152.7474 1618.4774L2150.0674 1618.4774L2150.0674 1615.1274" stroke="#FF0000" stroke-width="0.017133871" stroke-linecap="round" fill="none" />
            </g>
				<text transform="matrix(0 1 1 0 2150.3796 1616.483)" x="0" y="0" style="fill:#FF0000;font-family:SimSun;" font-size="0.28603351">
3.35
				</text>
				<text transform="matrix(1 0 0 -1 2151.0935 1618.1776)" x="0" y="0" style="fill:#FF0000;font-family:SimSun;" font-size="0.28603351">
2.68
				</text>
				<text transform="matrix(0.80000001 0 0 -1 2151.1813 1617.3624)" x="0" y="0" style="fill:#FF00FF;font-family:Arial;" font-size="0.41909959">
102
				</text>
				<text transform="matrix(0.80000001 0 0 -1 2154.5986 1617.609)" x="0" y="0" style="fill:#FF00FF;font-family:Arial;" font-size="0.41909959">
101
				</text>
				<text transform="matrix(1 0 0 -1 2154.4909 1618.7857)" x="0" y="0" style="fill:#FF0000;font-family:SimSun;" font-size="0.28603351">
3.30
				</text>
            <path d="M2152.6974 1615.1274L2152.6974 1616.0774" stroke="#00FF00" stroke-width="0.017133871" stroke-linecap="round" fill="none" />
            <path d="M2152.6974 1616.0774L2152.6311 1616.075L2152.5651 1616.0681L2152.4998 1616.0566L2152.4355 1616.0406L2152.3724 1616.0201L2152.311 1615.9952L2152.2514 1615.9662L2152.1939 1615.933L2152.139 1615.8959L2152.0867 1615.8551L2152.0374 1615.8107L2151.9914 1615.763L2151.9487 1615.7122L2151.9098 1615.6586L2151.8746 1615.6024L2151.8435 1615.5438L2151.8165 1615.4832L2151.7939 1615.4209L2151.7756 1615.3572L2151.7618 1615.2923L2151.7474 1615.1274" stroke="#00FF00" stroke-width="0.017133871" stroke-linecap="round" fill="none" />
            <path d="M2153.1273 1615.1038L2153.1273 1616.0538" stroke="#00FF00" stroke-width="0.017133871" stroke-linecap="round" fill="none" />
            <path d="M2153.1273 1616.0538L2153.1936 1616.0514L2153.2596 1616.0445L2153.3249 1616.033L2153.3892 1616.017L2153.4523 1615.9965L2153.5137 1615.9716L2153.5733 1615.9426L2153.6308 1615.9094L2153.6857 1615.8723L2153.738 1615.8315L2153.7873 1615.7871L2153.8333 1615.7394L2153.8759 1615.6886L2153.9149 1615.635L2153.9501 1615.5788L2153.9812 1615.5202L2154.0082 1615.4596L2154.0308 1615.3973L2154.0491 1615.3336L2154.0629 1615.2687L2154.0773 1615.1038" stroke="#00FF00" stroke-width="0.017133871" stroke-linecap="round" fill="none" />
                <path d="M2151.7474 1615.1274L2151.7474 1614.8674" stroke="#FF0000" stroke-width="0.017133871" stroke-linecap="round" fill="none" />
                <path d="M2152.6974 1615.1274L2152.6974 1614.8674" stroke="#FF0000" stroke-width="0.017133871" stroke-linecap="round" fill="none" />
                <path d="M2153.1273 1615.1038L2153.1273 1614.8674" stroke="#FF0000" stroke-width="0.017133871" stroke-linecap="round" fill="none" />
                <path d="M2154.0773 1615.1038L2154.0773 1614.8674" stroke="#FF0000" stroke-width="0.017133871" stroke-linecap="round" fill="none" />
            <path d="M2158.8151 1615.1038L2158.8151 1616.0538" stroke="#00FF00" stroke-width="0.017133871" stroke-linecap="round" fill="none" />
            <path d="M2158.8151 1616.0538L2158.7489 1616.0514L2158.6829 1616.0445L2158.6176 1616.033L2158.5533 1616.017L2158.4902 1615.9965L2158.4287 1615.9716L2158.3691 1615.9426L2158.3117 1615.9094L2158.2567 1615.8723L2158.2045 1615.8315L2158.1552 1615.7871L2158.1091 1615.7394L2158.0665 1615.6886L2158.0275 1615.635L2157.9924 1615.5788L2157.9613 1615.5202L2157.9343 1615.4596L2157.9116 1615.3973L2157.8934 1615.3336L2157.8796 1615.2687L2157.8651 1615.1038" stroke="#00FF00" stroke-width="0.017133871" stroke-linecap="round" fill="none" />
                <path d="M2157.8651 1615.1038L2157.8651 1614.8674" stroke="#FF0000" stroke-width="0.017133871" stroke-linecap="round" fill="none" />
                <path d="M2158.8106 1614.8674L2158.8106 1615.1038" stroke="#FF0000" stroke-width="0.017133871" stroke-linecap="round" fill="none" />
        <g>
				<text transform="matrix(0.80000001 0 0 -1 2157.8142 1617.4879)" x="0" y="0" style="fill:#FF00FF;font-family:Arial;" font-size="0.27939972">
洗
				</text>
				<text transform="matrix(0.80000001 0 0 -1 2158.0361 1617.4879)" x="0" y="0" style="fill:#FF00FF;font-family:Arial;" font-size="0.27939972">
手
				</text>
				<text transform="matrix(0.80000001 0 0 -1 2158.258 1617.4879)" x="0" y="0" style="fill:#FF00FF;font-family:Arial;" font-size="0.27939972">
间
				</text>
        </g>
        <g>
				<text transform="matrix(0.80000001 0 0 -1 2159.2175 1615.9398)" x="0" y="0" style="fill:#FF00FF;font-family:Arial;" font-size="0.27939972">
茶
				</text>
				<text transform="matrix(0.80000001 0 0 -1 2159.4394 1615.9398)" x="0" y="0" style="fill:#FF00FF;font-family:Arial;" font-size="0.27939972">
水
				</text>
				<text transform="matrix(0.80000001 0 0 -1 2159.6616 1615.9398)" x="0" y="0" style="fill:#FF00FF;font-family:Arial;" font-size="0.27939972">
间
				</text>
        </g>
            <path d="M2160.4168 1615.1038L2160.4168 1616.0538" stroke="#00FF00" stroke-width="0.017133871" stroke-linecap="round" fill="none" />
            <path d="M2160.4168 1616.0538L2160.4831 1616.0514L2160.549 1616.0445L2160.6143 1616.033L2160.6787 1616.017L2160.7417 1615.9965L2160.8032 1615.9716L2160.8628 1615.9426L2160.9202 1615.9094L2160.9752 1615.8723L2161.0275 1615.8315L2161.0767 1615.7871L2161.1228 1615.7394L2161.1654 1615.6886L2161.2044 1615.635L2161.2395 1615.5788L2161.2707 1615.5202L2161.2976 1615.4596L2161.3203 1615.3973L2161.3386 1615.3336L2161.3524 1615.2687L2161.3668 1615.1038" stroke="#00FF00" stroke-width="0.017133871" stroke-linecap="round" fill="none" />
                <path d="M2160.4168 1615.1038L2160.4168 1614.8674" stroke="#FF0000" stroke-width="0.017133871" stroke-linecap="round" fill="none" />
                <path d="M2161.3668 1615.1038L2161.3668 1614.8674" stroke="#FF0000" stroke-width="0.017133871" stroke-linecap="round" fill="none" />
        <g name="700">
				<text transform="matrix(0.80000001 0 0 -1 2161.4746 1616.8594)" x="0" y="0" style="fill:#FF00FF;font-family:Arial;" font-size="0.27939972">
离
				</text>
				<text transform="matrix(0.80000001 0 0 -1 2161.6965 1616.8594)" x="0" y="0" style="fill:#FF00FF;font-family:Arial;" font-size="0.27939972">
退
				</text>
				<text transform="matrix(0.80000001 0 0 -1 2161.9184 1616.8594)" x="0" y="0" style="fill:#FF00FF;font-family:Arial;" font-size="0.27939972">
休
				</text>
				<text transform="matrix(0.80000001 0 0 -1 2162.1403 1616.8594)" x="0" y="0" style="fill:#FF00FF;font-family:Arial;" font-size="0.27939972">
干
				</text>
				<text transform="matrix(0.80000001 0 0 -1 2162.3623 1616.8594)" x="0" y="0" style="fill:#FF00FF;font-family:Arial;" font-size="0.27939972">
部
				</text>
				<text transform="matrix(0.80000001 0 0 -1 2162.5844 1616.8594)" x="0" y="0" style="fill:#FF00FF;font-family:Arial;" font-size="0.27939972">
科
				</text>
        </g>
        <g>
				<text transform="matrix(0.80000001 0 0 -1 2165.1823 1616.8594)" x="0" y="0" style="fill:#FF00FF;font-family:Arial;" font-size="0.27939972">
基
				</text>
				<text transform="matrix(0.80000001 0 0 -1 2165.4042 1616.8594)" x="0" y="0" style="fill:#FF00FF;font-family:Arial;" font-size="0.27939972">
建
				</text>
				<text transform="matrix(0.80000001 0 0 -1 2165.6262 1616.8594)" x="0" y="0" style="fill:#FF00FF;font-family:Arial;" font-size="0.27939972">
档
				</text>
				<text transform="matrix(0.80000001 0 0 -1 2165.8481 1616.8594)" x="0" y="0" style="fill:#FF00FF;font-family:Arial;" font-size="0.27939972">
案
				</text>
				<text transform="matrix(0.80000001 0 0 -1 2166.07 1616.8594)" x="0" y="0" style="fill:#FF00FF;font-family:Arial;" font-size="0.27939972">
室
				</text>
        </g>
            <path d="M2163.9373 1613.6974L2164.8873 1613.6974" stroke="#00FF00" stroke-width="0.017133871" stroke-linecap="round" fill="none" />
            <path d="M2163.9373 1614.6474L2164.0036 1614.645L2164.0696 1614.6381L2164.1349 1614.6266L2164.1992 1614.6106L2164.2623 1614.5901L2164.3237 1614.5652L2164.3833 1614.5362L2164.4408 1614.503L2164.4957 1614.4659L2164.548 1614.4251L2164.5973 1614.3807L2164.6433 1614.333L2164.6859 1614.2822L2164.7249 1614.2286L2164.7601 1614.1724L2164.7912 1614.1138L2164.8182 1614.0532L2164.8408 1613.9909L2164.8591 1613.9272L2164.8729 1613.8623L2164.8873 1613.6974" stroke="#00FF00" stroke-width="0.017133871" stroke-linecap="round" fill="none" />
                <path d="M2163.6373 1614.8674L2163.6373 1614.6474" stroke="#FF0000" stroke-width="0.017133871" stroke-linecap="round" fill="none" />
                <path d="M2163.6373 1613.6974L2163.6373 1613.6474" stroke="#FF0000" stroke-width="0.017133871" stroke-linecap="round" fill="none" />
                <path d="M2163.9373 1614.6474L2163.6373 1614.6474" stroke="#FF0000" stroke-width="0.017133871" stroke-linecap="round" fill="none" />
                <path d="M2163.9373 1613.6974L2163.6373 1613.6974" stroke="#FF0000" stroke-width="0.017133871" stroke-linecap="round" fill="none" />
            <path d="M2162.4373 1613.3638L2162.4373 1612.4138" stroke="#00FF00" stroke-width="0.017133871" stroke-linecap="round" fill="none" />
            <path d="M2163.3873 1613.3638L2163.385 1613.2975L2163.3781 1613.2315L2163.3666 1613.1662L2163.3505 1613.1019L2163.33 1613.0388L2163.3052 1612.9774L2163.2761 1612.9178L2163.243 1612.8603L2163.2059 1612.8054L2163.1651 1612.7531L2163.1207 1612.7038L2163.073 1612.6578L2163.0222 1612.6151L2162.9686 1612.5762L2162.9123 1612.541L2162.8538 1612.5099L2162.7932 1612.4829L2162.7309 1612.4603L2162.6672 1612.442L2162.6023 1612.4282L2162.4373 1612.4138" stroke="#00FF00" stroke-width="0.017133871" stroke-linecap="round" fill="none" />
                <path d="M2162.4373 1613.3638L2162.4373 1613.6474" stroke="#FF0000" stroke-width="0.017133871" stroke-linecap="round" fill="none" />
                <path d="M2163.3873 1613.3638L2163.3873 1613.6474" stroke="#FF0000" stroke-width="0.017133871" stroke-linecap="round" fill="none" />
            <path d="M2162.0773 1613.3638L2162.0773 1612.4138" stroke="#00FF00" stroke-width="0.017133871" stroke-linecap="round" fill="none" />
            <path d="M2161.1273 1613.3638L2161.1297 1613.2975L2161.1366 1613.2315L2161.1481 1613.1662L2161.1641 1613.1019L2161.1846 1613.0388L2161.2095 1612.9774L2161.2385 1612.9178L2161.2717 1612.8603L2161.3088 1612.8054L2161.3496 1612.7531L2161.394 1612.7038L2161.4417 1612.6578L2161.4925 1612.6151L2161.5461 1612.5762L2161.6023 1612.541L2161.6609 1612.5099L2161.7215 1612.4829L2161.7838 1612.4603L2161.8475 1612.442L2161.9124 1612.4282L2162.0773 1612.4138" stroke="#00FF00" stroke-width="0.017133871" stroke-linecap="round" fill="none" />
                <path d="M2162.0773 1613.3638L2162.0773 1613.6474" stroke="#FF0000" stroke-width="0.017133871" stroke-linecap="round" fill="none" />
                <path d="M2161.1273 1613.3638L2161.1273 1613.6474" stroke="#FF0000" stroke-width="0.017133871" stroke-linecap="round" fill="none" />
            <path d="M2150.4674 1613.3874L2150.4674 1612.4374" stroke="#00FF00" stroke-width="0.017133871" stroke-linecap="round" fill="none" />
            <path d="M2149.5174 1613.3874L2149.5197 1613.3211L2149.5266 1613.2551L2149.5381 1613.1898L2149.5542 1613.1255L2149.5747 1613.0624L2149.5995 1613.001L2149.6286 1612.9414L2149.6617 1612.8839L2149.6988 1612.829L2149.7396 1612.7767L2149.784 1612.7274L2149.8317 1612.6814L2149.8825 1612.6388L2149.9361 1612.5998L2149.9924 1612.5646L2150.0509 1612.5335L2150.1115 1612.5065L2150.1738 1612.4839L2150.2375 1612.4656L2150.3024 1612.4518L2150.4674 1612.4374" stroke="#00FF00" stroke-width="0.017133871" stroke-linecap="round" fill="none" />
            <path d="M2150.8673 1613.3638L2150.8673 1612.4138" stroke="#00FF00" stroke-width="0.017133871" stroke-linecap="round" fill="none" />
            <path d="M2151.8173 1613.3638L2151.815 1613.2975L2151.8081 1613.2315L2151.7966 1613.1662L2151.7805 1613.1019L2151.76 1613.0388L2151.7352 1612.9774L2151.7061 1612.9178L2151.673 1612.8603L2151.6359 1612.8054L2151.5951 1612.7531L2151.5507 1612.7038L2151.503 1612.6578L2151.4522 1612.6151L2151.3986 1612.5762L2151.3423 1612.541L2151.2838 1612.5099L2151.2232 1612.4829L2151.1609 1612.4603L2151.0972 1612.442L2151.0323 1612.4282L2150.8673 1612.4138" stroke="#00FF00" stroke-width="0.017133871" stroke-linecap="round" fill="none" />
                <path d="M2151.8173 1613.3638L2151.8173 1613.6474" stroke="#FF0000" stroke-width="0.017133871" stroke-linecap="round" fill="none" />
                <path d="M2150.4674 1613.3874L2150.4674 1613.6474" stroke="#FF0000" stroke-width="0.017133871" stroke-linecap="round" fill="none" />
                <path d="M2149.5174 1613.3874L2149.5174 1613.6474" stroke="#FF0000" stroke-width="0.017133871" stroke-linecap="round" fill="none" />
                <path d="M2150.8673 1613.3638L2150.8673 1613.6474" stroke="#FF0000" stroke-width="0.017133871" stroke-linecap="round" fill="none" />
				<text transform="matrix(0.80000001 0 0 -1 2147.8937 1611.5869)" x="0" y="0" style="fill:#FF00FF;font-family:Arial;" font-size="0.41909959">
105
				</text>
				<text transform="matrix(0.80000001 0 0 -1 2152.6967 1611.5019)" x="0" y="0" style="fill:#FF00FF;font-family:Arial;" font-size="0.41909959">
106
				</text>
				<text transform="matrix(0.80000001 0 0 -1 2159.7695 1611.5279)" x="0" y="0" style="fill:#FF00FF;font-family:Arial;" font-size="0.41909959">
107
				</text>
				<text transform="matrix(0.80000001 0 0 -1 2164.802 1611.56)" x="0" y="0" style="fill:#FF00FF;font-family:Arial;" font-size="0.41909959">
108
				</text>
				<text transform="matrix(1 0 0 -1 2161.7685 1618.7857)" x="0" y="0" style="fill:#FF0000;font-family:SimSun;" font-size="0.28603351">
3.35
				</text>
				<text transform="matrix(1 0 0 -1 2165.6303 1618.7857)" x="0" y="0" style="fill:#FF0000;font-family:SimSun;" font-size="0.28603351">
3.42
				</text>
				<text transform="matrix(0 1 1 0 2159.9453 1617.7962)" x="0" y="0" style="fill:#FF0000;font-family:SimSun;" font-size="0.28603351">
1.74
				</text>
				<text transform="matrix(1 0 0 -1 2159.2009 1617.4124)" x="0" y="0" style="fill:#FF0000;font-family:SimSun;" font-size="0.28603351">
1.18
				</text>
				<text transform="matrix(1 0 0 -1 2157.946 1618.7661)" x="0" y="0" style="fill:#FF0000;font-family:SimSun;" font-size="0.28603351">
3.30
				</text>
				<text transform="matrix(0 1 1 0 2158.7312 1616.0307)" x="0" y="0" style="fill:#FF0000;font-family:SimSun;" font-size="0.28603351">
2.10
				</text>
				<text transform="matrix(1 0 0 -1 2159.2009 1616.7849)" x="0" y="0" style="fill:#FF0000;font-family:SimSun;" font-size="0.28603351">
0.98
				</text>
				<text transform="matrix(0 1 1 0 2159.9426 1616.21)" x="0" y="0" style="fill:#FF0000;font-family:SimSun;" font-size="0.28603351">
1.95
				</text>
				<text transform="matrix(0 1 1 0 2163.5219 1616.423)" x="0" y="0" style="fill:#FF0000;font-family:SimSun;" font-size="0.28603351">
3.90
				</text>
				<text transform="matrix(0 1 1 0 2156.2758 1616.423)" x="0" y="0" style="fill:#FF0000;font-family:SimSun;" font-size="0.28603351">
3.90
				</text>
				<text transform="matrix(0 1 1 0 2167.2595 1616.423)" x="0" y="0" style="fill:#FF0000;font-family:SimSun;" font-size="0.28603351">
5.45
				</text>
				<text transform="matrix(0 1 1 0 2146.0036 1611.1229)" x="0" y="0" style="fill:#FF0000;font-family:SimSun;" font-size="0.28603351">
3.714
				</text>
				<text transform="matrix(0 1 1 0 2154.9145 1611.194)" x="0" y="0" style="fill:#FF0000;font-family:SimSun;" font-size="0.28603351">
3.73
				</text>
				<text transform="matrix(0 1 1 0 2158.229 1611.194)" x="0" y="0" style="fill:#FF0000;font-family:SimSun;" font-size="0.28603351">
3.75
				</text>
				<text transform="matrix(0 1 1 0 2167.1132 1611.1229)" x="0" y="0" style="fill:#FF0000;font-family:SimSun;" font-size="0.28603351">
3.718
				</text>
				<text transform="matrix(1 0 0 -1 2147.5092 1609.7691)" x="0" y="0" style="fill:#FF0000;font-family:SimSun;" font-size="0.28603351">
4.819
				</text>
				<text transform="matrix(1 0 0 -1 2152.8051 1609.7702)" x="0" y="0" style="fill:#FF0000;font-family:SimSun;" font-size="0.28603351">
4.24
				</text>
				<text transform="matrix(1 0 0 -1 2159.6567 1609.7702)" x="0" y="0" style="fill:#FF0000;font-family:SimSun;" font-size="0.28603351">
4.25
				</text>
				<text transform="matrix(1 0 0 -1 2164.6015 1609.7691)" x="0" y="0" style="fill:#FF0000;font-family:SimSun;" font-size="0.28603351">
4.824
				</text>
				<text transform="matrix(1 0 0 -1 2126.9099 1617.2608)" x="0" y="0" style="fill:#FF00FF;font-family:SimSun;" font-size="0.28603351">
S=12.73㎡
				</text>
				<text transform="matrix(1 0 0 -1 2130.8083 1617.2608)" x="0" y="0" style="fill:#FF00FF;font-family:SimSun;" font-size="0.28603351">
S=12.73㎡
				</text>
				<text transform="matrix(1 0 0 -1 2134.353 1617.2608)" x="0" y="0" style="fill:#FF00FF;font-family:SimSun;" font-size="0.28603351">
S=12.73㎡
				</text>
				<text transform="matrix(1 0 0 -1 2137.8469 1617.2608)" x="0" y="0" style="fill:#FF00FF;font-family:SimSun;" font-size="0.28603351">
S=12.73㎡
				</text>
				<text transform="matrix(1 0 0 -1 2141.6357 1617.2608)" x="0" y="0" style="fill:#FF00FF;font-family:SimSun;" font-size="0.28603351">
S=27.58㎡
				</text>
				<text transform="matrix(1 0 0 -1 2146.8022 1615.8266)" x="0" y="0" style="fill:#FF00FF;font-family:SimSun;" font-size="0.28603351">
S=18.61㎡
				</text>
				<text transform="matrix(1 0 0 -1 2150.9216 1616.3258)" x="0" y="0" style="fill:#FF00FF;font-family:SimSun;" font-size="0.28603351">
S=8.98㎡
				</text>
				<text transform="matrix(1 0 0 -1 2154.3461 1616.3961)" x="0" y="0" style="fill:#FF00FF;font-family:SimSun;" font-size="0.28603351">
S=12.87㎡
				</text>
				<text transform="matrix(1 0 0 -1 2157.029 1616.958)" x="0" y="0" style="fill:#FF00FF;font-family:SimSun;" font-size="0.28603351">
S=10.19㎡
				</text>
				<text transform="matrix(1 0 0 -1 2161.5576 1616.3961)" x="0" y="0" style="fill:#FF00FF;font-family:SimSun;" font-size="0.28603351">
S=13.07㎡
				</text>
				<text transform="matrix(1 0 0 -1 2165.0905 1616.3961)" x="0" y="0" style="fill:#FF00FF;font-family:SimSun;" font-size="0.28603351">
S=18.64㎡
				</text>
				<text transform="matrix(1 0 0 -1 2147.5988 1610.8273)" x="0" y="0" style="fill:#FF00FF;font-family:SimSun;" font-size="0.28603351">
S=17.90㎡
				</text>
				<text transform="matrix(1 0 0 -1 2152.4006 1610.8273)" x="0" y="0" style="fill:#FF00FF;font-family:SimSun;" font-size="0.28603351">
S=15.81㎡
				</text>
				<text transform="matrix(1 0 0 -1 2159.5112 1610.8273)" x="0" y="0" style="fill:#FF00FF;font-family:SimSun;" font-size="0.28603351">
S=15.94㎡
				</text>
				<text transform="matrix(1 0 0 -1 2164.5163 1610.8273)" x="0" y="0" style="fill:#FF00FF;font-family:SimSun;" font-size="0.28603351">
S=17.94㎡
				</text>
				<text transform="matrix(1 0 0 -1 2158.9548 1615.5068)" x="0" y="0" style="fill:#FF00FF;font-family:SimSun;" font-size="0.28603351">
S=1.91㎡
				</text>
        <g>
				<text transform="matrix(0.80000001 0 0 -1 2154.7963 1614.1884)" x="0" y="0" style="fill:#FF00FF;font-family:Arial;" font-size="0.41909959">
走
				</text>
				<text transform="matrix(0.80000001 0 0 -1 2155.1293 1614.1884)" x="0" y="0" style="fill:#FF00FF;font-family:Arial;" font-size="0.41909959">
廊
				</text>
        </g>
				<text transform="matrix(1 0 0 -1 2156.0917 1614.2279)" x="0" y="0" style="fill:#FF00FF;font-family:SimSun;" font-size="0.28603351">
S=17.35
				</text>
        <g>
				<text transform="matrix(0.80000001 0 0 -1 2144.5415 1620.799)" x="0" y="0" style="fill:#000000;font-family:Arial;" font-size="1.1175988">
一
				</text>
				<text transform="matrix(0.80000001 0 0 -1 2145.4194 1620.799)" x="0" y="0" style="fill:#000000;font-family:Arial;" font-size="1.1175988">
层
				</text>
				<text transform="matrix(0.80000001 0 0 -1 2145.9611 1620.799)" x="0" y="0" style="fill:#000000;font-family:Arial;" font-size="1.1175988">
平
				</text>
				<text transform="matrix(0.80000001 0 0 -1 2146.8491 1620.799)" x="0" y="0" style="fill:#000000;font-family:Arial;" font-size="1.1175988">
面
				</text>
				<text transform="matrix(0.80000001 0 0 -1 2147.7368 1620.799)" x="0" y="0" style="fill:#000000;font-family:Arial;" font-size="1.1175988">
图
				</text>
        </g>
            <g>
                <path d="M2155.0473 1609.2983L2155.0473 1608.8983L2157.9073 1608.8983M2155.0473 1609.2983L2155.0473 1608.8983L2157.9073 1608.8983" stroke="#FF0000" stroke-width="0.025700807" stroke-linecap="round" fill="none" />
            </g>
                <path d="M2157.9073 1609.2983L2157.9073 1608.8983" stroke="#FF0000" stroke-width="0.025700807" stroke-linecap="round" fill="none" />
                <path d="M2156.4323 1613.3474L2155.3073 1613.3474" stroke="#FF0000" stroke-width="0.017133871" stroke-linecap="round" fill="none" />
                <path d="M2156.4323 1613.0474L2155.3073 1613.0474" stroke="#FF0000" stroke-width="0.017133871" stroke-linecap="round" fill="none" />
                <path d="M2156.4323 1612.7474L2155.3073 1612.7474" stroke="#FF0000" stroke-width="0.017133871" stroke-linecap="round" fill="none" />
                <path d="M2156.4323 1612.4474L2155.3073 1612.4474" stroke="#FF0000" stroke-width="0.017133871" stroke-linecap="round" fill="none" />
                <path d="M2156.4323 1612.1474L2155.3073 1612.1474" stroke="#FF0000" stroke-width="0.017133871" stroke-linecap="round" fill="none" />
                <path d="M2156.4323 1611.8474L2155.3073 1611.8474" stroke="#FF0000" stroke-width="0.017133871" stroke-linecap="round" fill="none" />
                <path d="M2156.4323 1611.5474L2155.3073 1611.5474" stroke="#FF0000" stroke-width="0.017133871" stroke-linecap="round" fill="none" />
                <path d="M2156.4323 1611.2474L2155.3073 1611.2474" stroke="#FF0000" stroke-width="0.017133871" stroke-linecap="round" fill="none" />
            <g>
                <path d="M2156.4323 1611.0338L2156.4323 1611.0338L2156.4323 1613.6478M2156.4323 1611.0338L2156.4323 1611.0338L2156.4323 1613.6478" stroke="#FF0000" stroke-width="0.017133871" stroke-linecap="round" fill="none" />
            </g>
            <g>
                <path d="M2155.3073 1613.6474L2155.3073 1609.2474L2157.6568 1609.2474L2157.6567 1613.6474L2155.3073 1613.6474M2155.3073 1613.6474L2155.3073 1609.2474L2157.6568 1609.2474L2157.6567 1613.6474L2155.3073 1613.6474M2155.3073 1613.6474L2155.3073 1609.2474L2157.6568 1609.2474L2157.6567 1613.6474L2155.3073 1613.6474M2155.3073 1613.6474L2155.3073 1609.2474L2157.6568 1609.2474L2157.6567 1613.6474L2155.3073 1613.6474" stroke="#FF0000" stroke-width="0.017133871" stroke-linecap="round" fill="none" />
            </g>
            <g>
                <path d="M2157.6473 1610.6174L2157.6473 1610.6174L2155.3073 1610.6174M2157.6473 1610.6174L2157.6473 1610.6174L2155.3073 1610.6174" stroke="#FF0000" stroke-width="0.017133871" stroke-linecap="round" fill="none" />
            </g>
                <path d="M2156.4323 1610.8256L2155.3073 1610.8256" stroke="#FF0000" stroke-width="0.017133871" stroke-linecap="round" fill="none" />
                <path d="M2156.4323 1611.0338L2156.4323 1610.6174" stroke="#FF0000" stroke-width="0.017133871" stroke-linecap="round" fill="none" />
				<text transform="matrix(0 1 1 0 2155.5837 1611.1557)" x="0" y="0" style="fill:#FF0000;font-family:SimSun;" font-size="0.28603351">
3.46
				</text>
				<text transform="matrix(1 0 0 -1 2156.2116 1609.3122)" x="0" y="0" style="fill:#FF0000;font-family:SimSun;" font-size="0.28603351">
2.34
				</text>
				<text transform="matrix(1 0 0 -1 2155.9677 1609.8291)" x="0" y="0" style="fill:#FF00FF;font-family:SimSun;" font-size="0.28603351">
S=8.10㎡
				</text>
				<text transform="matrix(0.80000001 0 0 -1 2147.1174 1616.8483)" x="0" y="0" style="fill:#FF00FF;font-family:Arial;" font-size="0.41909959">
103
				</text>
        <g>
				<text transform="matrix(0.80000001 0 0 -1 2150.9692 1617.0152)" x="0" y="0" style="fill:#FF00FF;font-family:Arial;" font-size="0.27939972">
房
				</text>
				<text transform="matrix(0.80000001 0 0 -1 2151.1911 1617.0152)" x="0" y="0" style="fill:#FF00FF;font-family:Arial;" font-size="0.27939972">
产
				</text>
				<text transform="matrix(0.80000001 0 0 -1 2151.3266 1617.0152)" x="0" y="0" style="fill:#FF00FF;font-family:Arial;" font-size="0.27939972">
管
				</text>
				<text transform="matrix(0.80000001 0 0 -1 2151.5485 1617.0152)" x="0" y="0" style="fill:#FF00FF;font-family:Arial;" font-size="0.27939972">
理
				</text>
				<text transform="matrix(0.80000001 0 0 -1 2151.7705 1617.0152)" x="0" y="0" style="fill:#FF00FF;font-family:Arial;" font-size="0.27939972">
科
				</text>
        </g>
        <g>
				<text transform="matrix(0.80000001 0 0 -1 2154.3586 1617.2797)" x="0" y="0" style="fill:#FF00FF;font-family:Arial;" font-size="0.27939972">
房
				</text>
				<text transform="matrix(0.80000001 0 0 -1 2154.5805 1617.2797)" x="0" y="0" style="fill:#FF00FF;font-family:Arial;" font-size="0.27939972">
产
				</text>
				<text transform="matrix(0.80000001 0 0 -1 2154.716 1617.2797)" x="0" y="0" style="fill:#FF00FF;font-family:Arial;" font-size="0.27939972">
管
				</text>
				<text transform="matrix(0.80000001 0 0 -1 2154.9379 1617.2797)" x="0" y="0" style="fill:#FF00FF;font-family:Arial;" font-size="0.27939972">
理
				</text>
				<text transform="matrix(0.80000001 0 0 -1 2155.1599 1617.2797)" x="0" y="0" style="fill:#FF00FF;font-family:Arial;" font-size="0.27939972">
科
				</text>
        </g>
        <g>
				<text transform="matrix(0.80000001 0 0 -1 2164.4848 1611.2111)" x="0" y="0" style="fill:#FF00FF;font-family:Arial;" font-size="0.27939972">
离
				</text>
				<text transform="matrix(0.80000001 0 0 -1 2164.7067 1611.2111)" x="0" y="0" style="fill:#FF00FF;font-family:Arial;" font-size="0.27939972">
退
				</text>
				<text transform="matrix(0.80000001 0 0 -1 2164.9287 1611.2111)" x="0" y="0" style="fill:#FF00FF;font-family:Arial;" font-size="0.27939972">
休
				</text>
				<text transform="matrix(0.80000001 0 0 -1 2165.1506 1611.2111)" x="0" y="0" style="fill:#FF00FF;font-family:Arial;" font-size="0.27939972">
干
				</text>
				<text transform="matrix(0.80000001 0 0 -1 2165.3725 1611.2111)" x="0" y="0" style="fill:#FF00FF;font-family:Arial;" font-size="0.27939972">
部
				</text>
				<text transform="matrix(0.80000001 0 0 -1 2165.5947 1611.2111)" x="0" y="0" style="fill:#FF00FF;font-family:Arial;" font-size="0.27939972">
科
				</text>
        </g>
        <g>
				<text transform="matrix(0.80000001 0 0 -1 2159.8188 1611.1864)" x="0" y="0" style="fill:#FF00FF;font-family:Arial;" font-size="0.27939972">
值
				</text>
				<text transform="matrix(0.80000001 0 0 -1 2159.9543 1611.1864)" x="0" y="0" style="fill:#FF00FF;font-family:Arial;" font-size="0.27939972">
班
				</text>
				<text transform="matrix(0.80000001 0 0 -1 2160.1762 1611.1864)" x="0" y="0" style="fill:#FF00FF;font-family:Arial;" font-size="0.27939972">
室
				</text>
        </g>
        <g>
				<text transform="matrix(0.80000001 0 0 -1 2152.3457 1611.1879)" x="0" y="0" style="fill:#FF00FF;font-family:Arial;" font-size="0.27939972">
直
				</text>
				<text transform="matrix(0.80000001 0 0 -1 2152.5676 1611.1879)" x="0" y="0" style="fill:#FF00FF;font-family:Arial;" font-size="0.27939972">
属
				</text>
				<text transform="matrix(0.80000001 0 0 -1 2152.7895 1611.1879)" x="0" y="0" style="fill:#FF00FF;font-family:Arial;" font-size="0.27939972">
机
				</text>
				<text transform="matrix(0.80000001 0 0 -1 2153.0114 1611.1879)" x="0" y="0" style="fill:#FF00FF;font-family:Arial;" font-size="0.27939972">
关
				</text>
				<text transform="matrix(0.80000001 0 0 -1 2153.2336 1611.1879)" x="0" y="0" style="fill:#FF00FF;font-family:Arial;" font-size="0.27939972">
党
				</text>
				<text transform="matrix(0.80000001 0 0 -1 2153.4555 1611.1879)" x="0" y="0" style="fill:#FF00FF;font-family:Arial;" font-size="0.27939972">
委
				</text>
        </g>
        <g>
				<text transform="matrix(0.80000001 0 0 -1 2147.5021 1611.1879)" x="0" y="0" style="fill:#FF00FF;font-family:Arial;" font-size="0.27939972">
直
				</text>
				<text transform="matrix(0.80000001 0 0 -1 2147.7241 1611.1879)" x="0" y="0" style="fill:#FF00FF;font-family:Arial;" font-size="0.27939972">
属
				</text>
				<text transform="matrix(0.80000001 0 0 -1 2147.9462 1611.1879)" x="0" y="0" style="fill:#FF00FF;font-family:Arial;" font-size="0.27939972">
机
				</text>
				<text transform="matrix(0.80000001 0 0 -1 2148.1682 1611.1879)" x="0" y="0" style="fill:#FF00FF;font-family:Arial;" font-size="0.27939972">
关
				</text>
				<text transform="matrix(0.80000001 0 0 -1 2148.3901 1611.1879)" x="0" y="0" style="fill:#FF00FF;font-family:Arial;" font-size="0.27939972">
党
				</text>
				<text transform="matrix(0.80000001 0 0 -1 2148.612 1611.1879)" x="0" y="0" style="fill:#FF00FF;font-family:Arial;" font-size="0.27939972">
委
				</text>
        </g>
        <g>
				<text transform="matrix(0.80000001 0 0 -1 2156.038 1610.1881)" x="0" y="0" style="fill:#FF00FF;font-family:Arial;" font-size="0.41909959">
楼
				</text>
				<text transform="matrix(0.80000001 0 0 -1 2156.371 1610.1881)" x="0" y="0" style="fill:#FF00FF;font-family:Arial;" font-size="0.41909959">
梯
				</text>
				<text transform="matrix(0.80000001 0 0 -1 2156.7038 1610.1881)" x="0" y="0" style="fill:#FF00FF;font-family:Arial;" font-size="0.41909959">
间
				</text>
        </g>
        <g>
				<text transform="matrix(0.80000001 0 0 -1 2137.4462 1613.0946)" x="0" y="0" style="fill:#FF00FF;font-family:Arial;" font-size="0.27939972">
机
				</text>
				<text transform="matrix(0.80000001 0 0 -1 2137.6682 1613.0946)" x="0" y="0" style="fill:#FF00FF;font-family:Arial;" font-size="0.27939972">
关
				</text>
				<text transform="matrix(0.80000001 0 0 -1 2137.8901 1613.0946)" x="0" y="0" style="fill:#FF00FF;font-family:Arial;" font-size="0.27939972">
后
				</text>
				<text transform="matrix(0.80000001 0 0 -1 2138.112 1613.0946)" x="0" y="0" style="fill:#FF00FF;font-family:Arial;" font-size="0.27939972">
勤
				</text>
				<text transform="matrix(0.80000001 0 0 -1 2138.3315 1613.0946)" x="0" y="0" style="fill:#FF00FF;font-family:Arial;" font-size="0.27939972">
服
				</text>
				<text transform="matrix(0.80000001 0 0 -1 2138.5534 1613.0946)" x="0" y="0" style="fill:#FF00FF;font-family:Arial;" font-size="0.27939972">
务
				</text>
				<text transform="matrix(0.80000001 0 0 -1 2138.6889 1613.0946)" x="0" y="0" style="fill:#FF00FF;font-family:Arial;" font-size="0.27939972">
中
				</text>
				<text transform="matrix(0.80000001 0 0 -1 2138.9011 1613.0946)" x="0" y="0" style="fill:#FF00FF;font-family:Arial;" font-size="0.27939972">
心
				</text>
        </g>
        <g>
				<text transform="matrix(0.80000001 0 0 -1 2130.3732 1613.0946)" x="0" y="0" style="fill:#FF00FF;font-family:Arial;" font-size="0.27939972">
机
				</text>
				<text transform="matrix(0.80000001 0 0 -1 2130.5952 1613.0946)" x="0" y="0" style="fill:#FF00FF;font-family:Arial;" font-size="0.27939972">
关
				</text>
				<text transform="matrix(0.80000001 0 0 -1 2130.8171 1613.0946)" x="0" y="0" style="fill:#FF00FF;font-family:Arial;" font-size="0.27939972">
后
				</text>
				<text transform="matrix(0.80000001 0 0 -1 2131.039 1613.0946)" x="0" y="0" style="fill:#FF00FF;font-family:Arial;" font-size="0.27939972">
勤
				</text>
				<text transform="matrix(0.80000001 0 0 -1 2131.2585 1613.0946)" x="0" y="0" style="fill:#FF00FF;font-family:Arial;" font-size="0.27939972">
服
				</text>
				<text transform="matrix(0.80000001 0 0 -1 2131.4804 1613.0946)" x="0" y="0" style="fill:#FF00FF;font-family:Arial;" font-size="0.27939972">
务
				</text>
				<text transform="matrix(0.80000001 0 0 -1 2131.6159 1613.0946)" x="0" y="0" style="fill:#FF00FF;font-family:Arial;" font-size="0.27939972">
中
				</text>
				<text transform="matrix(0.80000001 0 0 -1 2131.8281 1613.0946)" x="0" y="0" style="fill:#FF00FF;font-family:Arial;" font-size="0.27939972">
心
				</text>
        </g>
        <g>
				<text transform="matrix(0.80000001 0 0 -1 2126.789 1613.0946)" x="0" y="0" style="fill:#FF00FF;font-family:Arial;" font-size="0.27939972">
机
				</text>
				<text transform="matrix(0.80000001 0 0 -1 2127.0109 1613.0946)" x="0" y="0" style="fill:#FF00FF;font-family:Arial;" font-size="0.27939972">
关
				</text>
				<text transform="matrix(0.80000001 0 0 -1 2127.2329 1613.0946)" x="0" y="0" style="fill:#FF00FF;font-family:Arial;" font-size="0.27939972">
后
				</text>
				<text transform="matrix(0.80000001 0 0 -1 2127.455 1613.0946)" x="0" y="0" style="fill:#FF00FF;font-family:Arial;" font-size="0.27939972">
勤
				</text>
				<text transform="matrix(0.80000001 0 0 -1 2127.6745 1613.0946)" x="0" y="0" style="fill:#FF00FF;font-family:Arial;" font-size="0.27939972">
服
				</text>
				<text transform="matrix(0.80000001 0 0 -1 2127.8964 1613.0946)" x="0" y="0" style="fill:#FF00FF;font-family:Arial;" font-size="0.27939972">
务
				</text>
				<text transform="matrix(0.80000001 0 0 -1 2128.0317 1613.0946)" x="0" y="0" style="fill:#FF00FF;font-family:Arial;" font-size="0.27939972">
中
				</text>
				<text transform="matrix(0.80000001 0 0 -1 2128.2438 1613.0946)" x="0" y="0" style="fill:#FF00FF;font-family:Arial;" font-size="0.27939972">
心
				</text>
        </g>
        <g>
				<text transform="matrix(0.80000001 0 0 -1 2125.5786 1607.7089)" x="0" y="0" style="fill:#FF00FF;font-family:Arial;" font-size="0.41909959">
说
				</text>
				<text transform="matrix(0.80000001 0 0 -1 2125.7817 1607.7089)" x="0" y="0" style="fill:#FF00FF;font-family:Arial;" font-size="0.41909959">
明
				</text>
				<text transform="matrix(0.80000001 0 0 -1 2126.1108 1607.7089)" x="0" y="0" style="fill:#FF00FF;font-family:Arial;" font-size="0.41909959">
：
				</text>
        </g>
        <g>
				<text transform="matrix(0.80000001 0 0 -1 2126.2609 1607.3312)" x="0" y="0" style="fill:#FF00FF;font-family:Arial;" font-size="0.27939972">
（
				</text>
				<text transform="matrix(0.80000001 0 0 -1 2126.4829 1607.3312)" x="0" y="0" style="fill:#FF00FF;font-family:Arial;" font-size="0.27939972">
1
				</text>
				<text transform="matrix(0.80000001 0 0 -1 2126.6071 1607.3312)" x="0" y="0" style="fill:#FF00FF;font-family:Arial;" font-size="0.27939972">
）
				</text>
				<text transform="matrix(0.80000001 0 0 -1 2126.6857 1607.3312)" x="0" y="0" style="fill:#FF00FF;font-family:Arial;" font-size="0.27939972">
办
				</text>
				<text transform="matrix(0.80000001 0 0 -1 2126.821 1607.3312)" x="0" y="0" style="fill:#FF00FF;font-family:Arial;" font-size="0.27939972">
公
				</text>
				<text transform="matrix(0.80000001 0 0 -1 2127.0429 1607.3312)" x="0" y="0" style="fill:#FF00FF;font-family:Arial;" font-size="0.27939972">
用
				</text>
				<text transform="matrix(0.80000001 0 0 -1 2127.2575 1607.3312)" x="0" y="0" style="fill:#FF00FF;font-family:Arial;" font-size="0.27939972">
房
				</text>
				<text transform="matrix(0.80000001 0 0 -1 2127.4794 1607.3312)" x="0" y="0" style="fill:#FF00FF;font-family:Arial;" font-size="0.27939972">
尺
				</text>
				<text transform="matrix(0.80000001 0 0 -1 2127.7016 1607.3312)" x="0" y="0" style="fill:#FF00FF;font-family:Arial;" font-size="0.27939972">
寸
				</text>
				<text transform="matrix(0.80000001 0 0 -1 2127.9235 1607.3312)" x="0" y="0" style="fill:#FF00FF;font-family:Arial;" font-size="0.27939972">
测
				</text>
				<text transform="matrix(0.80000001 0 0 -1 2128.0588 1607.3312)" x="0" y="0" style="fill:#FF00FF;font-family:Arial;" font-size="0.27939972">
量
				</text>
				<text transform="matrix(0.80000001 0 0 -1 2128.281 1607.3312)" x="0" y="0" style="fill:#FF00FF;font-family:Arial;" font-size="0.27939972">
单
				</text>
				<text transform="matrix(0.80000001 0 0 -1 2128.4162 1607.3312)" x="0" y="0" style="fill:#FF00FF;font-family:Arial;" font-size="0.27939972">
位
				</text>
				<text transform="matrix(0.80000001 0 0 -1 2128.6381 1607.3312)" x="0" y="0" style="fill:#FF00FF;font-family:Arial;" font-size="0.27939972">
为
				</text>
				<text transform="matrix(0.80000001 0 0 -1 2128.7736 1607.3312)" x="0" y="0" style="fill:#FF00FF;font-family:Arial;" font-size="0.27939972">
m
				</text>
				<text transform="matrix(0.80000001 0 0 -1 2128.9599 1607.3312)" x="0" y="0" style="fill:#FF00FF;font-family:Arial;" font-size="0.27939972">
，
				</text>
				<text transform="matrix(0.80000001 0 0 -1 2129.0087 1607.3312)" x="0" y="0" style="fill:#FF00FF;font-family:Arial;" font-size="0.27939972">
精
				</text>
				<text transform="matrix(0.80000001 0 0 -1 2129.2307 1607.3312)" x="0" y="0" style="fill:#FF00FF;font-family:Arial;" font-size="0.27939972">
确
				</text>
				<text transform="matrix(0.80000001 0 0 -1 2129.4526 1607.3312)" x="0" y="0" style="fill:#FF00FF;font-family:Arial;" font-size="0.27939972">
到
				</text>
				<text transform="matrix(0.80000001 0 0 -1 2129.6745 1607.3312)" x="0" y="0" style="fill:#FF00FF;font-family:Arial;" font-size="0.27939972">
cm
				</text>
				<text transform="matrix(0.80000001 0 0 -1 2129.9726 1607.3312)" x="0" y="0" style="fill:#FF00FF;font-family:Arial;" font-size="0.27939972">
；
				</text>
				<text transform="matrix(0.80000001 0 0 -1 2130.0981 1607.3312)" x="0" y="0" style="fill:#FF00FF;font-family:Arial;" font-size="0.27939972">
办
				</text>
				<text transform="matrix(0.80000001 0 0 -1 2130.2336 1607.3312)" x="0" y="0" style="fill:#FF00FF;font-family:Arial;" font-size="0.27939972">
公
				</text>
				<text transform="matrix(0.80000001 0 0 -1 2130.4555 1607.3312)" x="0" y="0" style="fill:#FF00FF;font-family:Arial;" font-size="0.27939972">
用
				</text>
				<text transform="matrix(0.80000001 0 0 -1 2130.6701 1607.3312)" x="0" y="0" style="fill:#FF00FF;font-family:Arial;" font-size="0.27939972">
房
				</text>
				<text transform="matrix(0.80000001 0 0 -1 2130.892 1607.3312)" x="0" y="0" style="fill:#FF00FF;font-family:Arial;" font-size="0.27939972">
面
				</text>
				<text transform="matrix(0.80000001 0 0 -1 2131.114 1607.3312)" x="0" y="0" style="fill:#FF00FF;font-family:Arial;" font-size="0.27939972">
积
				</text>
				<text transform="matrix(0.80000001 0 0 -1 2131.2495 1607.3312)" x="0" y="0" style="fill:#FF00FF;font-family:Arial;" font-size="0.27939972">
单
				</text>
				<text transform="matrix(0.80000001 0 0 -1 2131.3847 1607.3312)" x="0" y="0" style="fill:#FF00FF;font-family:Arial;" font-size="0.27939972">
位
				</text>
				<text transform="matrix(0.80000001 0 0 -1 2131.6066 1607.3312)" x="0" y="0" style="fill:#FF00FF;font-family:Arial;" font-size="0.27939972">
为
				</text>
				<text transform="matrix(0.80000001 0 0 -1 2131.7421 1607.3312)" x="0" y="0" style="fill:#FF00FF;font-family:Arial;" font-size="0.27939972">
㎡。
				</text>
        </g>
        <g>
				<text transform="matrix(0.80000001 0 0 -1 2126.2355 1606.7546)" x="0" y="0" style="fill:#FF00FF;font-family:Arial;" font-size="0.27939972">
（
				</text>
				<text transform="matrix(0.80000001 0 0 -1 2126.4575 1606.7546)" x="0" y="0" style="fill:#FF00FF;font-family:Arial;" font-size="0.27939972">
2
				</text>
				<text transform="matrix(0.80000001 0 0 -1 2126.5817 1606.7546)" x="0" y="0" style="fill:#FF00FF;font-family:Arial;" font-size="0.27939972">
）
				</text>
				<text transform="matrix(0.80000001 0 0 -1 2126.6604 1606.7546)" x="0" y="0" style="fill:#FF00FF;font-family:Arial;" font-size="0.27939972">
本
				</text>
				<text transform="matrix(0.80000001 0 0 -1 2126.8823 1606.7546)" x="0" y="0" style="fill:#FF00FF;font-family:Arial;" font-size="0.27939972">
层
				</text>
				<text transform="matrix(0.80000001 0 0 -1 2127.0178 1606.7546)" x="0" y="0" style="fill:#FF00FF;font-family:Arial;" font-size="0.27939972">
办
				</text>
				<text transform="matrix(0.80000001 0 0 -1 2127.153 1606.7546)" x="0" y="0" style="fill:#FF00FF;font-family:Arial;" font-size="0.27939972">
公
				</text>
				<text transform="matrix(0.80000001 0 0 -1 2127.375 1606.7546)" x="0" y="0" style="fill:#FF00FF;font-family:Arial;" font-size="0.27939972">
面
				</text>
				<text transform="matrix(0.80000001 0 0 -1 2127.5971 1606.7546)" x="0" y="0" style="fill:#FF00FF;font-family:Arial;" font-size="0.27939972">
积
				</text>
				<text transform="matrix(0.80000001 0 0 -1 2127.7324 1606.7546)" x="0" y="0" style="fill:#FF00FF;font-family:Arial;" font-size="0.27939972">
合
				</text>
				<text transform="matrix(0.80000001 0 0 -1 2127.9543 1606.7546)" x="0" y="0" style="fill:#FF00FF;font-family:Arial;" font-size="0.27939972">
计
				</text>
				<text transform="matrix(0.80000001 0 0 -1 2128.0898 1606.7546)" x="0" y="0" style="fill:#FF00FF;font-family:Arial;" font-size="0.27939972">
为
				</text>
				<text transform="matrix(0.80000001 0 0 -1 2128.2873 1606.7546)" x="0" y="0" style="fill:#FF00FF;font-family:Arial;" font-size="0.27939972">
314.82 
				</text>
				<text transform="matrix(0.80000001 0 0 -1 2129.0332 1606.7546)" x="0" y="0" style="fill:#FF00FF;font-family:Arial;" font-size="0.27939972">
㎡。
				</text>
        </g>
        <g>
				<text transform="matrix(0.80000001 0 0 -1 2126.2512 1606.2823)" x="0" y="0" style="fill:#FF00FF;font-family:Arial;" font-size="0.27939972">
（
				</text>
				<text transform="matrix(0.80000001 0 0 -1 2126.4731 1606.2823)" x="0" y="0" style="fill:#FF00FF;font-family:Arial;" font-size="0.27939972">
3
				</text>
				<text transform="matrix(0.80000001 0 0 -1 2126.5974 1606.2823)" x="0" y="0" style="fill:#FF00FF;font-family:Arial;" font-size="0.27939972">
）
				</text>
				<text transform="matrix(0.80000001 0 0 -1 2126.676 1606.2823)" x="0" y="0" style="fill:#FF00FF;font-family:Arial;" font-size="0.27939972">
本
				</text>
				<text transform="matrix(0.80000001 0 0 -1 2126.8979 1606.2823)" x="0" y="0" style="fill:#FF00FF;font-family:Arial;" font-size="0.27939972">
层
				</text>
				<text transform="matrix(0.80000001 0 0 -1 2127.0332 1606.2823)" x="0" y="0" style="fill:#FF00FF;font-family:Arial;" font-size="0.27939972">
建
				</text>
				<text transform="matrix(0.80000001 0 0 -1 2127.2553 1606.2823)" x="0" y="0" style="fill:#FF00FF;font-family:Arial;" font-size="0.27939972">
筑
				</text>
				<text transform="matrix(0.80000001 0 0 -1 2127.4772 1606.2823)" x="0" y="0" style="fill:#FF00FF;font-family:Arial;" font-size="0.27939972">
面
				</text>
				<text transform="matrix(0.80000001 0 0 -1 2127.6992 1606.2823)" x="0" y="0" style="fill:#FF00FF;font-family:Arial;" font-size="0.27939972">
积
				</text>
				<text transform="matrix(0.80000001 0 0 -1 2127.8347 1606.2823)" x="0" y="0" style="fill:#FF00FF;font-family:Arial;" font-size="0.27939972">
合
				</text>
				<text transform="matrix(0.80000001 0 0 -1 2128.0566 1606.2823)" x="0" y="0" style="fill:#FF00FF;font-family:Arial;" font-size="0.27939972">
计
				</text>
				<text transform="matrix(0.80000001 0 0 -1 2128.1918 1606.2823)" x="0" y="0" style="fill:#FF00FF;font-family:Arial;" font-size="0.27939972">
为
				</text>
				<text transform="matrix(0.80000001 0 0 -1 2128.3273 1606.2823)" x="0" y="0" style="fill:#FF00FF;font-family:Arial;" font-size="0.27939972">
420.83㎡。
				</text>
        </g>
				<text transform="matrix(0.80000001 0 0 -1 2165.4335 1617.18)" x="0" y="0" style="fill:#FF00FF;font-family:Arial;" font-size="0.41909959">
109
				</text>
				<text transform="matrix(0.80000001 0 0 -1 2161.8183 1617.1844)" x="0" y="0" style="fill:#FF00FF;font-family:Arial;" font-size="0.41909959">
110
				</text>
				<text transform="matrix(0.80000001 0 0 -1 2157.8178 1617.8006)" x="0" y="0" style="fill:#FF00FF;font-family:Arial;" font-size="0.41909959">
104
				</text>
                <path d="M2159.0223 1617.0538L2160.0073 1617.0538" stroke="#FF0000" stroke-width="0.017133871" stroke-linecap="round" fill="none" />
    </g>
</g>
</svg>